<?xml version="1.0" standalone="no"?>
<!DOCTYPE svg PUBLIC "-//W3C//DTD SVG 1.1//EN" "http://www.w3.org/Graphics/SVG/1.1/DTD/svg11.dtd" >
<svg xmlns="http://www.w3.org/2000/svg" xmlns:xlink="http://www.w3.org/1999/xlink" version="1.1">
<metadata></metadata>
<defs>
<font id="lft_etica_sbsemibold" horiz-adv-x="1024" >
<font-face units-per-em="2048" ascent="1495" descent="-553" />
<missing-glyph horiz-adv-x="419" />
<glyph unicode="&#xfb01;" horiz-adv-x="1230" d="M55 877v161l135 31v113q0 150 75 233.5t229 83.5q102 0 180 -22l-15 -179q-54 15 -94 15q-102 0 -102 -121v-111h618v-1081h-272v877h-346v-877h-273v877h-135zM786 1358q0 65 46 102t118 37q74 0 119 -36.5t45 -102.5q0 -63 -45 -99t-119 -36q-70 0 -117 36.5t-47 98.5z " />
<glyph unicode="&#xfb02;" horiz-adv-x="1226" d="M55 877v161l135 31v113q0 150 75 233.5t229 83.5q102 0 180 -22l-15 -179q-54 15 -94 15q-102 0 -102 -121v-111h348v394h272v-1475h-272v877h-348v-877h-273v877h-135z" />
<glyph unicode="&#xfb03;" horiz-adv-x="1849" d="M55 877v161l135 31v88q0 150 75.5 234t228.5 84q87 0 184 -23l-19 -178q-51 14 -94 14q-102 0 -102 -121v-86h346v101q0 150 75 233.5t228 83.5q102 0 180 -22l-14 -179q-54 15 -94 15q-103 0 -103 -121v-111h619v-1081h-273v877h-346v-877h-272v877h-346v-877h-273v877 h-135zM1405 1358q0 65 46 102t118 37q74 0 119 -36.5t45 -102.5q0 -63 -45 -99t-119 -36q-70 0 -117 36.5t-47 98.5z" />
<glyph unicode="&#xfb04;" horiz-adv-x="1841" d="M55 877v161l135 31v88q0 150 75.5 234t228.5 84q87 0 184 -23l-19 -178q-51 14 -94 14q-102 0 -102 -121v-86h342v101q0 150 75 233.5t228 83.5q102 0 180 -22l-14 -179q-54 15 -94 15q-103 0 -103 -121v-111h348v394h273v-1475h-273v877h-348v-877h-272v877h-342v-877 h-273v877h-135z" />
<glyph horiz-adv-x="0" />
<glyph horiz-adv-x="682" />
<glyph unicode=" "  horiz-adv-x="419" />
<glyph unicode="&#x09;" horiz-adv-x="419" />
<glyph unicode="&#xa0;" horiz-adv-x="419" />
<glyph unicode="!" horiz-adv-x="653" d="M170 117q0 70 41.5 110.5t114.5 40.5q71 0 114 -40t43 -105q0 -67 -43 -108.5t-114 -41.5q-73 0 -114.5 40.5t-41.5 103.5zM193 989v486h276v-486l-27 -553h-225z" />
<glyph unicode="&#x22;" horiz-adv-x="776" d="M119 903v572h209v-572h-209zM449 903v572h208v-572h-208z" />
<glyph unicode="#" horiz-adv-x="1431" d="M88 360v172h264l84 246h-229v172h289l131 373l166 -37l-117 -336h272l133 367l164 -31l-119 -336h224v-172h-285l-82 -246h248v-172h-305l-127 -344l-164 37l110 307h-272l-127 -344l-162 37l109 307h-205zM532 532h271l86 246h-277z" />
<glyph unicode="$" horiz-adv-x="1097" d="M29 209l127 162q90 -75 189.5 -117.5t189.5 -42.5q99 0 158 41.5t59 122.5q0 59 -21 96.5t-84.5 71t-183.5 63.5q-195 48 -289 145.5t-94 260.5q0 154 99.5 253.5t260.5 125.5v172h217v-174q101 -19 191.5 -67t152.5 -114l-118 -145q-69 62 -155 96.5t-171 34.5 q-99 0 -158 -39.5t-59 -116.5q0 -82 66 -130t239 -101q198 -59 287.5 -152t89.5 -256q0 -158 -99 -261.5t-266 -131.5v-186h-219v186q-122 19 -231 75.5t-178 127.5z" />
<glyph unicode="%" horiz-adv-x="1935" d="M78 1092q0 159 103.5 262.5t271.5 103.5q166 0 270 -101t104 -259q0 -156 -106.5 -259.5t-267.5 -103.5q-173 0 -274 98.5t-101 258.5zM287 1098q0 -80 45 -128t121 -48q75 0 119 49t44 127t-44 128t-119 50q-76 0 -121 -49.5t-45 -128.5zM414 0l899 1475h225l-903 -1475 h-221zM1108 336q0 159 104.5 262.5t272.5 103.5q165 0 269 -102t104 -258q0 -155 -106 -257.5t-267 -102.5q-173 0 -275 97.5t-102 256.5zM1317 342q0 -79 46 -127.5t122 -48.5q74 0 118 49t44 127q0 77 -44.5 127.5t-117.5 50.5q-77 0 -122.5 -50t-45.5 -128z" />
<glyph unicode="&#x26;" horiz-adv-x="1513" d="M135 403q0 294 316 453q-69 74 -103.5 144.5t-34.5 158.5q0 139 107 235.5t282 96.5q162 0 267.5 -84t105.5 -229q0 -118 -68 -202.5t-192 -154.5l160 -176l219 201l160 -162l-230 -207l297 -338l-190 -159l-170 186q-105 -104 -211.5 -150.5t-249.5 -46.5 q-207 0 -336 119.5t-129 314.5zM391 428q0 -102 67.5 -171t180.5 -69q158 0 281 146l-336 377q-193 -94 -193 -283zM565 1169q0 -86 121 -213q84 49 125 99.5t41 113.5q0 60 -36.5 95.5t-104.5 35.5t-107 -36.5t-39 -94.5z" />
<glyph unicode="'" horiz-adv-x="446" d="M119 903v572h209v-572h-209z" />
<glyph unicode="(" horiz-adv-x="749" d="M115 614q0 502 346 897l186 -96q-143 -203 -206.5 -384.5t-63.5 -412.5q0 -219 64 -396t218 -384l-159 -108q-176 160 -280.5 392.5t-104.5 491.5z" />
<glyph unicode=")" horiz-adv-x="749" d="M90 -162q154 208 218.5 384.5t64.5 395.5q0 231 -64 412t-207 385l187 96q346 -395 346 -897q0 -259 -104.5 -491.5t-280.5 -392.5z" />
<glyph unicode="*" horiz-adv-x="935" d="M102 1176l48 116l225 -51l28 236h119l31 -234l238 51l43 -118l-224 -86l133 -209l-98 -74l-182 190l-184 -190l-103 74l139 209z" />
<glyph unicode="+" horiz-adv-x="1228" d="M78 516v172h446v451h178v-451h447v-172h-447v-448h-178v448h-446z" />
<glyph unicode="," horiz-adv-x="512" d="M84 -219q168 79 174 219q-30 -10 -53 -10q-53 0 -84 35t-31 90q0 62 44 103.5t108 41.5q83 0 125.5 -57t42.5 -140q0 -129 -72 -228.5t-213 -149.5z" />
<glyph unicode="-" horiz-adv-x="671" d="M61 461v215h549v-215h-549z" />
<glyph unicode="." horiz-adv-x="518" d="M102 117q0 70 41.5 110.5t114.5 40.5q72 0 115 -40t43 -105q0 -67 -43.5 -108.5t-114.5 -41.5q-73 0 -114.5 40.5t-41.5 103.5z" />
<glyph unicode="/" horiz-adv-x="825" d="M37 -188l491 1701h224l-496 -1701h-219z" />
<glyph unicode="0" horiz-adv-x="1253" d="M102 721q0 371 136.5 562.5t392.5 191.5q253 0 386.5 -189.5t133.5 -550.5q0 -379 -136 -570.5t-394 -191.5q-255 0 -387 189t-132 559zM371 721q0 -518 256 -518t256 522t-256 522t-256 -526z" />
<glyph unicode="1" horiz-adv-x="991" d="M72 1200q112 28 227 97.5t190 156.5h205v-1249h267v-205h-834v205h301v917q-152 -83 -322 -102z" />
<glyph unicode="2" horiz-adv-x="1087" d="M41 1255q238 220 506 220q116 0 211 -42.5t156 -132.5t61 -213q0 -117 -38 -206t-130 -201l-379 -463h567v-217h-921v164l501 606q73 89 103.5 152t30.5 131q0 87 -58 139.5t-149 52.5q-134 0 -344 -155z" />
<glyph unicode="3" horiz-adv-x="1107" d="M33 172l121 160q168 -139 350 -139q112 0 181 56.5t69 162.5q0 224 -269 227q-89 0 -129 -8v215q142 5 236 69.5t94 169.5q0 85 -53 127.5t-141 42.5q-147 0 -302 -94l-100 166q104 73 211 110.5t236 37.5q182 0 294.5 -94.5t112.5 -258.5q0 -122 -71 -214.5t-199 -131.5 v-6q164 -17 249 -111.5t85 -248.5q0 -135 -66.5 -236t-176 -151t-245.5 -50q-291 0 -487 199z" />
<glyph unicode="4" horiz-adv-x="1189" d="M61 313v197l572 944h342v-922h164v-219h-164v-313h-256v313h-658zM315 532h404v680z" />
<glyph unicode="5" horiz-adv-x="1110" d="M55 129l88 172q191 -104 336 -104q123 0 201 69t78 205q0 254 -217 254q-121 0 -203 -86l-10 -107h-217l71 922h756l-14 -229h-535l-37 -387q101 90 266 90q186 0 291 -117.5t105 -335.5q0 -122 -39.5 -219t-108.5 -158t-160 -93t-198 -32q-116 0 -238 40t-215 116z" />
<glyph unicode="6" horiz-adv-x="1153" d="M96 635q0 405 143.5 622.5t409.5 217.5q180 0 359 -107l-80 -178q-129 74 -252 74q-84 0 -148 -40.5t-101.5 -112t-57.5 -158t-25 -189.5q155 151 334 151q180 0 285.5 -119t105.5 -319q0 -129 -36 -227t-100.5 -157.5t-149 -89.5t-187.5 -30q-253 0 -376.5 170 t-123.5 492zM350 580q6 -209 65 -303.5t179 -94.5q100 0 161.5 67.5t61.5 205.5q0 129 -56.5 188t-154.5 59q-73 0 -142.5 -38t-113.5 -84z" />
<glyph unicode="7" horiz-adv-x="974" d="M37 1227v227h913v-115l-524 -1339h-266v27l475 1200h-598z" />
<glyph unicode="8" horiz-adv-x="1138" d="M72 367q0 74 24 139.5t66 114.5t89 85t103 64q-101 42 -163 127t-62 203q0 167 122.5 271t326.5 104q193 0 311.5 -96t118.5 -253q0 -110 -65 -197t-163 -143q283 -138 283 -385q0 -200 -139.5 -314t-372.5 -114q-228 0 -353.5 103.5t-125.5 290.5zM322 387 q0 -96 61 -150.5t174 -54.5q106 0 171 60.5t65 156.5q0 53 -24 97.5t-69 78t-82 53.5t-90 42q-206 -107 -206 -283zM391 1104q0 -131 203 -221q68 37 118 99t50 132q0 83 -49.5 124.5t-139.5 41.5q-86 0 -134 -48t-48 -128z" />
<glyph unicode="9" horiz-adv-x="1142" d="M68 979q0 234 133 365t340 131q247 0 374 -168t127 -471q0 -421 -140.5 -642t-393.5 -221q-106 0 -210 30t-179 85l86 176q143 -82 276 -82q79 0 137.5 39.5t93.5 110t53.5 151t25.5 179.5q-144 -134 -328 -134t-289.5 126t-105.5 325zM315 995q0 -129 59.5 -191.5 t157.5 -62.5q75 0 142.5 36t111.5 87q0 187 -63 291.5t-182 104.5q-98 0 -162 -67.5t-64 -197.5z" />
<glyph unicode=":" horiz-adv-x="518" d="M102 117q0 70 41.5 110.5t114.5 40.5q72 0 115 -40t43 -105q0 -67 -43.5 -108.5t-114.5 -41.5q-73 0 -114.5 40.5t-41.5 103.5zM102 889q0 70 41.5 110.5t114.5 40.5q72 0 115 -40t43 -105q0 -67 -43.5 -108.5t-114.5 -41.5q-73 0 -114.5 40.5t-41.5 103.5z" />
<glyph unicode=";" horiz-adv-x="518" d="M90 -219q168 79 174 219q-30 -10 -53 -10q-53 0 -84 35t-31 90q0 62 44 103.5t108 41.5q83 0 125.5 -57t42.5 -140q0 -129 -72 -228.5t-213 -149.5zM100 889q0 70 41.5 110.5t114.5 40.5q72 0 115 -40t43 -105q0 -67 -43.5 -108.5t-114.5 -41.5q-73 0 -114.5 40.5 t-41.5 103.5z" />
<glyph unicode="&#x3c;" horiz-adv-x="1228" d="M47 543v127l1083 454l74 -176l-827 -342l831 -338l-73 -178z" />
<glyph unicode="=" horiz-adv-x="1228" d="M80 324v174h1067v-174h-1067zM80 696v172h1067v-172h-1067z" />
<glyph unicode="&#x3e;" horiz-adv-x="1228" d="M25 270l827 340l-825 342l73 176l1084 -454v-127l-1086 -453z" />
<glyph unicode="?" horiz-adv-x="1120" d="M88 1034q0 231 133.5 348t356.5 117q92 0 172.5 -24t143.5 -69.5t99.5 -120.5t36.5 -169q0 -85 -36 -161t-87 -132t-102 -108t-87 -113t-36 -125v-41h-244v68q0 80 33 150.5t79.5 121.5t93 98t79.5 102.5t33 113.5q0 87 -52 132.5t-143 45.5q-98 0 -159.5 -60.5 t-61.5 -173.5h-252zM401 117q0 70 42 110.5t116 40.5q70 0 114 -40t44 -105q0 -66 -44 -108t-114 -42q-73 0 -115.5 40.5t-42.5 103.5z" />
<glyph unicode="@" horiz-adv-x="2025" d="M154 389q0 203 74.5 379.5t202 298.5t302.5 192t373 70q231 0 409 -86t276.5 -244t98.5 -364q0 -137 -43.5 -257t-116.5 -201t-167.5 -127t-196.5 -46q-210 0 -219 160q-48 -74 -124 -116t-169 -42q-95 0 -158 45t-89.5 116t-26.5 165q0 147 64.5 271.5t186.5 201 t277 76.5q169 0 313 -82l-118 -469q-43 -176 90 -176q99 0 175 74.5t112 180t36 216.5q0 267 -168.5 409t-447.5 142q-223 0 -399 -102t-273.5 -282t-97.5 -405q0 -154 51.5 -279t144 -208.5t221 -128.5t281.5 -45q329 0 586 190l80 -123q-135 -105 -316.5 -160t-363.5 -55 q-183 0 -340 55t-272.5 157t-181.5 256t-66 343zM756 340q0 -197 149 -197q84 0 149 68t91 166l82 323q-51 31 -137 31q-103 0 -181 -56t-115.5 -143.5t-37.5 -191.5z" />
<glyph unicode="A" horiz-adv-x="1413" d="M33 0l530 1475h285l530 -1475h-303l-108 334h-521l-108 -334h-305zM522 571h367l-184 580z" />
<glyph unicode="B" horiz-adv-x="1335" d="M150 0v1475h544q258 0 383 -89.5t125 -273.5q0 -76 -27 -142t-86 -117t-143 -71v-4q83 -12 146.5 -47.5t99.5 -84t54 -101.5t18 -107q0 -101 -31.5 -177.5t-85.5 -125.5t-133.5 -79.5t-167 -43t-195.5 -12.5h-501zM432 240h297q119 0 182.5 56t63.5 155 q0 101 -66.5 150.5t-187.5 49.5h-289v-411zM432 868h225q119 0 186.5 48.5t67.5 146.5q0 88 -57.5 133t-167.5 45h-254v-373z" />
<glyph unicode="C" horiz-adv-x="1392" d="M102 737q0 163 43 301.5t124.5 241.5t209 161t287.5 58q240 0 394.5 -133t166.5 -385h-285q-4 53 -19.5 97t-46 82.5t-83.5 60.5t-125 22q-171 0 -266.5 -132.5t-95.5 -371.5q0 -250 99.5 -380t276.5 -130q120 0 214 45t186 125l151 -186q-130 -125 -269.5 -182.5 t-309.5 -57.5q-162 0 -287.5 57.5t-204.5 160.5t-119.5 241t-40.5 305z" />
<glyph unicode="D" horiz-adv-x="1480" d="M150 0v1475h485q358 0 545.5 -188.5t187.5 -532.5q0 -393 -190.5 -573.5t-585.5 -180.5h-442zM432 248h207q223 0 328.5 120.5t105.5 364.5q0 492 -434 492h-207v-977z" />
<glyph unicode="E" horiz-adv-x="1241" d="M150 0v1475h980v-250h-698v-355h635v-249h-635v-373h711v-248h-993z" />
<glyph unicode="F" horiz-adv-x="1165" d="M150 0v1475h944v-250h-662v-377h584v-244h-584v-604h-282z" />
<glyph unicode="G" horiz-adv-x="1495" d="M102 737q0 169 42 307.5t124.5 240.5t213.5 158t300 56q149 0 260 -37.5t177 -105t100 -151t41 -187.5h-293q-7 102 -75.5 163.5t-209.5 61.5q-185 0 -284 -136t-99 -366q0 -516 416 -516q181 0 283 84v242h-262v235h532v-585q-116 -126 -266 -177t-303 -51 q-152 0 -272.5 40t-199 109t-130 167.5t-73.5 208.5t-22 239z" />
<glyph unicode="H" horiz-adv-x="1472" d="M150 0v1475h282v-601h608v601h283v-1475h-283v618h-608v-618h-282z" />
<glyph unicode="I" horiz-adv-x="589" d="M154 0v1475h282v-1475h-282z" />
<glyph unicode="J" horiz-adv-x="874" d="M51 29l35 221q94 -33 190 -33t133 43.5t37 161.5v1053h285v-1096q0 -206 -90.5 -306t-271.5 -100q-85 0 -172 15.5t-146 40.5z" />
<glyph unicode="K" horiz-adv-x="1382" d="M150 0v1475h282v-609h207l338 609h315l-409 -719l465 -756h-328l-385 633h-203v-633h-282z" />
<glyph unicode="L" horiz-adv-x="1144" d="M150 0v1475h282v-1225h641v-250h-923z" />
<glyph unicode="M" horiz-adv-x="1804" d="M100 0l144 1475h303l356 -1084l365 1084h291l145 -1475h-266l-97 995l-323 -995h-227l-324 997l-96 -997h-271z" />
<glyph unicode="N" horiz-adv-x="1484" d="M150 0v1475h249l656 -998v998h280v-1475h-248l-659 985v-985h-278z" />
<glyph unicode="O" horiz-adv-x="1609" d="M102 745q0 352 191.5 553t511.5 201q321 0 511.5 -200.5t190.5 -553.5q0 -371 -189.5 -571.5t-512.5 -200.5q-159 0 -288 50.5t-221.5 147t-143 243t-50.5 331.5zM399 745q0 -246 107 -380t299 -134q194 0 299.5 133t105.5 381q0 229 -107 362.5t-296 133.5 q-192 0 -300 -134t-108 -362z" />
<glyph unicode="P" horiz-adv-x="1290" d="M150 0v1475h534q251 0 385.5 -124.5t134.5 -349.5q0 -231 -135.5 -359t-404.5 -128h-232v-514h-282zM432 745h217q136 0 205.5 63.5t69.5 180.5q0 242 -262 242h-230v-486z" />
<glyph unicode="Q" horiz-adv-x="1609" d="M102 745q0 352 191.5 553t511.5 201q321 0 511.5 -200.5t190.5 -553.5q0 -217 -79 -376t-218 -246v-10l293 -93l-94 -229l-522 186q-54 -4 -82 -4q-159 0 -288 50.5t-221.5 147t-143 243t-50.5 331.5zM399 745q0 -246 107 -380t299 -134q194 0 299.5 133t105.5 381 q0 229 -107 362.5t-296 133.5q-192 0 -300 -134t-108 -362z" />
<glyph unicode="R" horiz-adv-x="1357" d="M150 0v1475h530q264 0 402.5 -123.5t138.5 -337.5q0 -282 -236 -406l315 -608h-307l-272 543q-79 -11 -131 -11h-158v-532h-282zM432 760h223q277 0 277 241q0 116 -65 173t-199 57h-236v-471z" />
<glyph unicode="S" horiz-adv-x="1251" d="M59 219l142 174q220 -184 436 -184q99 0 161 51.5t62 140.5q0 58 -25 97.5t-92.5 74.5t-191.5 70q-234 66 -333 161.5t-99 266.5q0 208 142.5 318t369.5 110q297 0 504 -207l-138 -168q-166 146 -360 146q-103 0 -165 -44t-62 -126q0 -32 7.5 -56.5t28 -46t42.5 -37 t68 -34.5t85 -32.5t111 -37.5q218 -71 310.5 -164.5t92.5 -261.5q0 -213 -142.5 -335t-385.5 -122q-336 0 -568 246z" />
<glyph unicode="T" horiz-adv-x="1255" d="M45 1225v250h1165v-250h-440v-1225h-283v1225h-442z" />
<glyph unicode="U" horiz-adv-x="1456" d="M143 557v918h283v-906q0 -171 80 -257.5t223 -86.5q156 0 228.5 85t72.5 259v906h283v-918q0 -288 -151 -435t-435 -147q-280 0 -432 143.5t-152 438.5z" />
<glyph unicode="V" horiz-adv-x="1323" d="M29 1475h297l336 -1145l342 1145h290l-471 -1475h-329z" />
<glyph unicode="W" horiz-adv-x="1923" d="M31 1475h288l263 -1108l252 1108h258l256 -1108l254 1108h290l-374 -1475h-301l-254 1038l-250 -1038h-307z" />
<glyph unicode="X" horiz-adv-x="1325" d="M33 0l456 752l-440 723h313l302 -510l307 510h321l-465 -744l455 -731h-324l-301 500l-295 -500h-329z" />
<glyph unicode="Y" horiz-adv-x="1308" d="M20 1475h310l319 -607l322 607h317l-500 -887v-588h-284v588z" />
<glyph unicode="Z" horiz-adv-x="1280" d="M74 0v180l710 1045h-669v250h1091v-113l-774 -1114h772v-248h-1130z" />
<glyph unicode="[" horiz-adv-x="724" d="M154 -256v1731h464v-203h-208v-1327h208v-201h-464z" />
<glyph unicode="\" horiz-adv-x="821" d="M70 1513h223l491 -1701h-219z" />
<glyph unicode="]" horiz-adv-x="724" d="M106 -55h209v1327h-209v203h465v-1731h-465v201z" />
<glyph unicode="^" horiz-adv-x="1445" d="M172 936l465 483h166l467 -493l-129 -109l-418 422l-420 -424z" />
<glyph unicode="_" horiz-adv-x="993" d="M-6 -258h1005v-188h-1005v188z" />
<glyph unicode="`" d="M297 1444l141 170l320 -293l-121 -135z" />
<glyph unicode="a" horiz-adv-x="1134" d="M86 291q0 68 26 126.5t81 108.5t154 78.5t233 28.5q85 0 153 -8v80q0 184 -184 184q-90 0 -159.5 -25t-160.5 -78l-92 164q91 71 207 113.5t234 42.5q428 0 428 -397v-709h-218l-28 145q-117 -172 -340 -172q-151 0 -242.5 82t-91.5 236zM356 295q0 -121 148 -121 q100 0 164.5 75.5t64.5 166.5v28q-57 11 -129 11q-248 0 -248 -160z" />
<glyph unicode="b" horiz-adv-x="1275" d="M137 0v1475h273v-519q130 150 325 150q201 0 321 -145t120 -416q0 -272 -117.5 -421t-358.5 -149q-110 0 -192.5 46.5t-132.5 111.5l-23 -133h-215zM410 326q37 -53 97 -89t138 -36q116 0 179 83t63 253q0 344 -234 344q-136 0 -243 -144v-411z" />
<glyph unicode="c" horiz-adv-x="1134" d="M94 539q0 258 146.5 412.5t386.5 154.5q207 0 320.5 -111t119.5 -321h-227q-10 105 -65 158t-144 53q-117 0 -183.5 -86.5t-66.5 -249.5q0 -161 67.5 -254.5t198.5 -93.5q80 0 148.5 24t158.5 74l101 -172q-188 -154 -447 -154q-232 0 -373 150.5t-141 415.5z" />
<glyph unicode="d" horiz-adv-x="1269" d="M100 537q0 268 126.5 418.5t328.5 150.5q179 0 311 -143v512h271v-1475h-242l-14 139q-50 -69 -134.5 -117.5t-201.5 -48.5q-221 0 -333 149t-112 415zM387 541q0 -97 21.5 -169.5t78.5 -120.5t146 -48q129 0 231 121v428q-102 122 -237 122q-113 0 -176.5 -84 t-63.5 -249z" />
<glyph unicode="e" horiz-adv-x="1169" d="M94 532q0 262 141.5 418t382.5 156q226 0 345.5 -132t119.5 -392q0 -97 -4 -133h-698q20 -250 268 -250q79 0 151.5 21.5t166.5 70.5l88 -178q-189 -140 -439 -140q-247 0 -384.5 145t-137.5 414zM383 645h440q0 54 -10 98t-32.5 80.5t-63 57t-96.5 20.5 q-63 0 -111.5 -27t-74 -69t-38 -82t-14.5 -78z" />
<glyph unicode="f" horiz-adv-x="673" d="M55 877v161l135 31v113q0 150 75 233.5t229 83.5q102 0 180 -22l-15 -179q-54 15 -94 15q-102 0 -102 -121v-111h186v-204h-186v-877h-273v877h-135z" />
<glyph unicode="g" horiz-adv-x="1280" d="M100 535q0 261 118.5 416t342.5 155q106 0 190 -48t142 -116l18 139h226v-1022q0 -139 -30 -233t-95 -150.5t-157 -81t-226 -24.5q-212 0 -391 68l43 198q192 -53 327 -53q148 0 207 63t59 215v101q-59 -73 -144.5 -114.5t-186.5 -41.5q-214 0 -328.5 137t-114.5 392z M387 551q0 -320 242 -320q127 0 235 117v400q-35 47 -99.5 86.5t-139.5 39.5q-116 0 -177 -82t-61 -241z" />
<glyph unicode="h" horiz-adv-x="1208" d="M137 0v1475h273v-525q63 69 149.5 112.5t183.5 43.5q162 0 249 -100.5t87 -282.5v-723h-272v655q0 106 -36.5 162.5t-135.5 56.5q-118 0 -225 -120v-754h-273z" />
<glyph unicode="i" horiz-adv-x="569" d="M127 1358q0 67 46 104t116 37q74 0 119 -37t45 -104q0 -65 -45 -101t-119 -36q-70 0 -116 36.5t-46 100.5zM150 0v1081h270v-1081h-270z" />
<glyph unicode="j" horiz-adv-x="569" d="M-61 -389l20 190q54 -12 96 -12q52 0 73.5 25.5t21.5 97.5v1169h270v-1183q0 -157 -69.5 -236.5t-225.5 -79.5q-94 0 -186 29zM123 1358q0 67 46 104t118 37q74 0 119 -37t45 -104q0 -65 -45 -101t-119 -36q-70 0 -117 36.5t-47 100.5z" />
<glyph unicode="k" horiz-adv-x="1161" d="M137 0v1475h273v-766h133l237 372h299l-321 -479l370 -602h-317l-287 483h-114v-483h-273z" />
<glyph unicode="l" horiz-adv-x="559" d="M143 0v1475h273v-1475h-273z" />
<glyph unicode="m" horiz-adv-x="1751" d="M137 0v1081h228l22 -141q142 166 328 166q194 0 262 -162q154 162 344 162q154 0 227.5 -93t73.5 -263v-750h-272v696q0 89 -29.5 132.5t-103.5 43.5q-97 0 -201 -110v-762h-271v688q0 93 -27 138.5t-100 45.5q-105 0 -208 -114v-758h-273z" />
<glyph unicode="n" horiz-adv-x="1208" d="M137 0v1081h228l22 -143q65 74 154 121t196 47q168 0 255 -100.5t87 -280.5v-725h-272v643q0 120 -41.5 175.5t-128.5 55.5q-72 0 -131 -38t-96 -82v-754h-273z" />
<glyph unicode="o" horiz-adv-x="1263" d="M94 535q0 137 41 246t114 179.5t171 108t215 37.5q238 0 386 -147.5t148 -417.5q0 -269 -152 -418.5t-396 -149.5q-246 0 -386.5 146.5t-140.5 415.5zM381 541q0 -173 67.5 -255.5t182.5 -82.5q116 0 184 82.5t68 255.5q0 172 -68.5 256t-183.5 84q-113 0 -181.5 -86.5 t-68.5 -253.5z" />
<glyph unicode="p" horiz-adv-x="1275" d="M137 -410v1491h225l29 -141q146 166 352 166q200 0 316.5 -144.5t116.5 -416.5q0 -269 -115.5 -419.5t-337.5 -150.5q-109 0 -187.5 41.5t-125.5 92.5v-519h-273zM410 319q36 -43 100 -79.5t141 -36.5q111 0 173.5 82.5t62.5 251.5q0 342 -230 342q-72 0 -136.5 -40.5 t-110.5 -97.5v-422z" />
<glyph unicode="q" horiz-adv-x="1271" d="M100 537q0 269 128 419t337 150q182 0 328 -156l35 131h209v-1491h-275v519q-123 -134 -307 -134q-228 0 -341.5 147.5t-113.5 414.5zM387 541q0 -97 21.5 -169.5t78.5 -120.5t146 -48q131 0 231 119v430q-39 47 -99.5 84.5t-137.5 37.5q-113 0 -176.5 -84t-63.5 -249z " />
<glyph unicode="r" horiz-adv-x="759" d="M137 0v1081h217l25 -155q40 79 103.5 129.5t135.5 50.5q48 0 107 -23l-20 -247q-49 14 -103 14q-56 0 -108.5 -40.5t-83.5 -92.5v-717h-273z" />
<glyph unicode="s" horiz-adv-x="1064" d="M63 162l121 164q80 -61 173.5 -100.5t168.5 -39.5q73 0 112.5 29.5t39.5 81.5q0 55 -42 85.5t-173 63.5q-177 45 -254.5 119.5t-77.5 206.5q0 155 112 244.5t298 89.5q248 0 430 -164l-121 -158q-159 115 -297 115q-150 0 -150 -96q0 -56 48.5 -83t187.5 -67 q180 -52 257 -121.5t77 -199.5q0 -170 -116.5 -264.5t-315.5 -94.5q-142 0 -265.5 52t-212.5 137z" />
<glyph unicode="t" horiz-adv-x="727" d="M53 877v157l146 45l28 312h238v-310h194v-204h-194v-607q0 -47 16.5 -67.5t53.5 -20.5q68 0 127 19l26 -187q-118 -41 -254 -41q-120 0 -179.5 62.5t-59.5 179.5v662h-142z" />
<glyph unicode="u" horiz-adv-x="1198" d="M129 348v733h272v-667q0 -106 36.5 -158.5t125.5 -52.5q124 0 225 116v762h273v-1081h-223l-23 141q-149 -168 -342 -168q-344 0 -344 375z" />
<glyph unicode="v" horiz-adv-x="1099" d="M33 1081h284l238 -817l238 817h274l-356 -1081h-318z" />
<glyph unicode="w" horiz-adv-x="1609" d="M45 1081h270l172 -772l187 772h256l207 -772l157 772h271l-285 -1081h-295l-184 707l-178 -707h-295z" />
<glyph unicode="x" horiz-adv-x="1118" d="M31 0l364 543l-354 538h295l223 -362l225 362h289l-350 -538l362 -543h-292l-234 367l-235 -367h-293z" />
<glyph unicode="y" horiz-adv-x="1087" d="M33 1081h284l224 -798l241 798h273l-365 -1038q-72 -205 -108 -273q-60 -114 -151 -154q-72 -32 -183 -32q-87 0 -182 25l20 192q77 -14 137 -14q65 0 105.5 30t70.5 122l11 30z" />
<glyph unicode="z" horiz-adv-x="974" d="M84 0v170l469 704h-459v207h807v-120l-495 -756h493v-205h-815z" />
<glyph unicode="{" horiz-adv-x="823" d="M72 487v191h69q92 0 121 50t29 187v170q0 216 84 303t299 87h84v-191h-76q-77 0 -105 -50.5t-28 -172.5v-244q0 -94 -36.5 -151t-129.5 -82q45 -9 76 -27.5t49 -41t27 -60t11.5 -72t2.5 -90.5v-184q0 -99 26.5 -137t112.5 -38h70v-190h-94q-216 0 -294.5 69t-78.5 255 v239q0 96 -30 138t-109 42h-80z" />
<glyph unicode="|" d="M395 -410v1885h232v-1885h-232z" />
<glyph unicode="}" horiz-adv-x="823" d="M66 -66h69q86 0 112.5 38t26.5 137v184q0 56 2.5 90.5t11.5 72t27 60t49 41t76 27.5q-93 25 -129.5 82t-36.5 151v244q0 122 -28 172.5t-105 50.5h-75v191h84q215 0 298.5 -87t83.5 -303v-170q0 -137 29 -187t121 -50h70v-191h-80q-79 0 -109.5 -42t-30.5 -138v-239 q0 -186 -78.5 -255t-293.5 -69h-94v190z" />
<glyph unicode="~" horiz-adv-x="1597" d="M113 633q228 158 422 158q60 0 134.5 -19t134 -42.5t131 -42.5t124.5 -19q81 0 158 31t165 89l113 -196q-204 -158 -422 -158q-62 0 -137.5 19.5t-135.5 43t-131 43t-124 19.5q-76 0 -150.5 -30t-173.5 -91z" />
<glyph unicode="&#xa1;" horiz-adv-x="653" d="M170 961q0 63 41.5 103t114.5 40q71 0 114 -41.5t43 -108.5q0 -65 -43 -105t-114 -40q-73 0 -114.5 41t-41.5 111zM193 88l24 553h225l27 -553v-485h-276v485z" />
<glyph unicode="&#xa2;" horiz-adv-x="1116" d="M102 721q0 228 115 374t309 177v201h222v-205q152 -29 236.5 -135.5t90.5 -280.5h-227q-9 104 -64 155.5t-145 51.5q-118 0 -184 -83t-66 -247q0 -160 71.5 -256t203.5 -96q83 0 157 25.5t160 78.5l78 -168q-140 -115 -311 -143v-207h-224v203q-195 30 -308.5 174 t-113.5 381z" />
<glyph unicode="&#xa3;" horiz-adv-x="1085" d="M82 0v195l111 14q120 130 120 258q0 70 -45 180h-184v176h119q-40 79 -59 137.5t-19 129.5q0 167 129.5 276t323.5 109q131 0 244 -47t192 -136l-111 -151q-142 121 -289 121q-99 0 -157 -52t-58 -141q0 -88 76 -246h318v-176h-265q41 -107 41 -180q0 -128 -108 -252h547 v-215h-926z" />
<glyph unicode="&#xa4;" horiz-adv-x="1181" d="M74 291l180 182q-68 98 -68 217q0 113 68 211l-180 184l114 123l181 -186q101 68 221 68t215 -66l182 180l119 -119l-184 -184q71 -93 71 -211q0 -121 -69 -219l184 -180l-121 -119l-182 182q-100 -65 -215 -65q-119 0 -219 65q-25 -25 -86.5 -87.5t-96.5 -94.5zM356 690 q0 -102 67.5 -167.5t166.5 -65.5q98 0 164.5 68t66.5 165q0 100 -66 165t-165 65q-96 0 -165 -65.5t-69 -164.5z" />
<glyph unicode="&#xa5;" horiz-adv-x="1212" d="M39 1454h285l282 -565l293 565h275l-377 -674h301v-174h-371v-135h371v-174h-371v-297h-252v297h-369v174h369v135h-369v174h300z" />
<glyph unicode="&#xa6;" d="M395 -410v848h232v-848h-232zM395 625v850h232v-850h-232z" />
<glyph unicode="&#xa7;" horiz-adv-x="1073" d="M129 147l100 140q67 -49 153.5 -84t166.5 -35q61 0 102 22.5t41 73.5q0 35 -30 61.5t-78 44.5t-106 35.5t-116.5 41t-106.5 54t-78 81t-30 116.5q0 93 56.5 159.5t156.5 94.5q-101 38 -148.5 101.5t-47.5 140.5q0 136 102 220.5t271 84.5q128 0 238 -38.5t179 -104.5 l-100 -135q-142 98 -281 98q-67 0 -114 -27.5t-47 -81.5t39.5 -84t148.5 -67q205 -71 278.5 -133.5t73.5 -169.5q0 -92 -57.5 -151t-144.5 -85q102 -45 149 -105.5t47 -142.5q0 -137 -107 -218t-272 -81q-122 0 -241 46t-197 128zM383 752q0 -52 60.5 -91t150.5 -65 q28 13 45 22.5t37 25.5t29.5 36.5t9.5 46.5q0 30 -18 54.5t-51.5 42t-64.5 28.5t-73 22q-57 -16 -91 -44t-34 -78z" />
<glyph unicode="&#xa8;" d="M166 1343q0 55 38 91t103 36q69 0 106.5 -35.5t37.5 -91.5t-40 -90t-104 -34q-67 0 -104 33t-37 91zM584 1343q0 55 38 91t103 36q69 0 106 -35.5t37 -91.5t-39.5 -90t-103.5 -34q-67 0 -104 33t-37 91z" />
<glyph unicode="&#xa9;" horiz-adv-x="1658" d="M92 737q0 212 98.5 381.5t266.5 263t372 93.5q218 0 386 -91.5t260 -257.5t92 -381q0 -158 -60 -298t-160.5 -237t-235.5 -153.5t-282 -56.5q-150 0 -282 48t-234 138t-161.5 232t-59.5 319zM219 737q0 -147 47.5 -266t131 -195.5t193.5 -117.5t238 -41q120 0 233 47.5 t197.5 129t135.5 198t51 245.5q0 276 -172.5 448.5t-444.5 172.5q-263 0 -436.5 -176t-173.5 -445zM483 739q0 182 94 295t263 113q131 0 212.5 -70t84.5 -211h-142q-7 75 -42.5 114.5t-116.5 39.5q-96 0 -149.5 -74.5t-53.5 -204.5q0 -138 55 -205t154 -67q114 0 229 92 l70 -96q-129 -129 -305 -129q-174 0 -263.5 108t-89.5 295z" />
<glyph unicode="&#xaa;" horiz-adv-x="989" d="M121 752q0 52 19 95t60 78.5t114 55.5t173 20q64 0 146 -10v66q0 69 -43 105t-121 36q-132 0 -254 -74l-53 127q153 99 321 99q346 0 346 -291v-518h-167l-17 123q-34 -64 -104.5 -104t-151.5 -40q-120 0 -194 60.5t-74 171.5zM313 764q0 -47 35.5 -74.5t95.5 -27.5 q77 0 133 52t56 122v43q-58 8 -109 8q-211 0 -211 -123z" />
<glyph unicode="&#xab;" horiz-adv-x="989" d="M68 492v83l325 297l113 -106l-199 -234l199 -229l-113 -102zM498 492v83l325 297l113 -106l-199 -234l199 -229l-113 -102z" />
<glyph unicode="&#xac;" horiz-adv-x="1228" d="M66 643v168h1099v-559h-178v391h-921z" />
<glyph unicode="&#xad;" horiz-adv-x="671" d="M61 461v215h549v-215h-549z" />
<glyph unicode="&#xae;" horiz-adv-x="864" d="M57 1118q0 164 108.5 268.5t268.5 104.5q165 0 269 -102.5t104 -270.5q0 -158 -110.5 -265.5t-264.5 -107.5q-167 0 -271 98.5t-104 274.5zM139 1120q0 -141 80.5 -219t212.5 -78q118 0 203.5 86t85.5 209q0 135 -80 216t-209 81q-125 0 -209 -83.5t-84 -211.5zM297 940 v365h141q68 0 102.5 -32.5t34.5 -86.5q0 -71 -61 -101l84 -145h-84l-70 127q-10 -2 -34 -2h-41v-125h-72zM369 1126h51q78 0 78 56q0 61 -74 61h-55v-117z" />
<glyph unicode="&#xaf;" d="M223 1245v182h580v-182h-580z" />
<glyph unicode="&#xb0;" horiz-adv-x="661" d="M82 1360q0 105 74 176.5t178 71.5q102 0 174 -71.5t72 -176.5q0 -104 -71.5 -175t-174.5 -71q-109 0 -180.5 69.5t-71.5 176.5zM205 1362q0 -62 35 -100.5t94 -38.5q55 0 91 39.5t36 99.5t-35 97.5t-92 37.5q-59 0 -94 -37t-35 -98z" />
<glyph unicode="&#xb1;" horiz-adv-x="1228" d="M80 520v168h444v356h178v-356h445v-168h-445v-348h445v-172h-1065v172h442v348h-444z" />
<glyph unicode="&#xb2;" horiz-adv-x="692" d="M29 1462q67 60 156.5 98.5t187.5 38.5q116 0 189 -58t73 -159q0 -66 -29.5 -118.5t-97.5 -112.5l-186 -166h315v-166h-582v127l256 250q40 39 55.5 55t31.5 44t16 55q0 73 -105 73q-88 0 -200 -80z" />
<glyph unicode="&#xb3;" horiz-adv-x="700" d="M14 909l74 123q58 -36 107 -53.5t108 -17.5q133 0 133 90q0 44 -35.5 64t-111.5 20q-31 0 -80 -7v154q188 3 188 96q0 40 -28.5 55t-79.5 15q-83 0 -183 -49l-51 119q133 81 295 81q125 0 192.5 -49.5t67.5 -142.5q0 -66 -41.5 -115t-113.5 -69q99 -9 146.5 -58.5 t47.5 -128.5q0 -113 -86.5 -172t-230.5 -59q-199 0 -318 104z" />
<glyph unicode="&#xb4;" d="M270 1321l320 293l141 -170l-340 -258z" />
<glyph unicode="&#xb5;" horiz-adv-x="1204" d="M127 -410v1491h270v-675q0 -218 183 -218q129 0 206 131v762h271v-1081h-240v131q-36 -65 -98.5 -105t-143.5 -40q-109 0 -178 75v-471h-270z" />
<glyph unicode="&#xb6;" horiz-adv-x="1136" d="M80 1092q0 171 120 277t316 106h471v-1475h-182v1331h-162v-1331h-182v719q-179 15 -280 112.5t-101 260.5z" />
<glyph unicode="&#xb7;" horiz-adv-x="612" d="M160 684q0 71 41 111.5t114 40.5q72 0 116 -40t44 -106q0 -65 -44 -106t-116 -41q-73 0 -114 39.5t-41 101.5z" />
<glyph unicode="&#xb8;" d="M319 -420l31 117q61 -21 117 -21q40 0 62 16.5t22 45.5q0 32 -28 47.5t-93 15.5h-37l47 215h131l-24 -122q29 -4 50 -8.5t46.5 -15.5t42 -27t28 -43.5t11.5 -63.5q0 -92 -62.5 -140.5t-164.5 -48.5q-105 0 -179 33z" />
<glyph unicode="&#xb9;" horiz-adv-x="591" d="M53 1456q72 16 140 49.5t112 79.5h170v-766h-219v512q-96 -17 -186 -6z" />
<glyph unicode="&#xba;" horiz-adv-x="1017" d="M109 936q0 197 112.5 305.5t288.5 108.5q175 0 287 -108.5t112 -305.5q0 -195 -113.5 -304.5t-285.5 -109.5q-185 0 -293 107.5t-108 306.5zM315 932q0 -130 52.5 -192t142.5 -62q88 0 141.5 62t53.5 192q0 131 -54 195.5t-141 64.5q-90 0 -142.5 -64t-52.5 -196z" />
<glyph unicode="&#xbb;" horiz-adv-x="993" d="M53 303l199 229l-199 234l113 106l326 -297v-83l-326 -291zM487 303l199 229l-199 234l113 106l326 -297v-83l-326 -291z" />
<glyph unicode="&#xbc;" horiz-adv-x="1812" d="M98 1354q72 16 140 49.5t112 79.5h170v-766h-219v512q-96 -17 -186 -6zM301 0l903 1475h211l-899 -1475h-215zM993 131v160l326 475h268v-473h82v-162h-82v-131h-201v131h-393zM1169 293h217v325z" />
<glyph unicode="&#xbd;" horiz-adv-x="1812" d="M88 1354q72 16 140 49.5t112 79.5h170v-766h-219v512q-96 -17 -187 -6zM231 0l904 1475h211l-900 -1475h-215zM1006 643q67 60 156.5 98.5t187.5 38.5q116 0 189 -58t73 -159q0 -66 -29.5 -118.5t-97.5 -112.5l-187 -166h316v-166h-582v127l256 250q66 64 83 89 q20 32 20 64q0 74 -105 74q-89 0 -201 -80z" />
<glyph unicode="&#xbe;" horiz-adv-x="1812" d="M135 807l74 123q59 -36 108 -54t107 -18q133 0 133 90q0 44 -35.5 64t-111.5 20q-38 0 -80 -6v154q188 3 188 96q0 40 -28.5 55t-79.5 15q-81 0 -183 -50l-51 119q135 82 295 82q125 0 192.5 -49.5t67.5 -142.5q0 -66 -42 -115.5t-114 -69.5q99 -9 147 -58t48 -128 q0 -113 -87 -172.5t-230 -59.5q-198 0 -318 105zM399 0l904 1475h210l-899 -1475h-215zM1032 131v160l326 475h268v-473h82v-162h-82v-131h-201v131h-393zM1208 293h217v325z" />
<glyph unicode="&#xbf;" horiz-adv-x="1120" d="M96 -37q0 85 36 161t87 132t102 108t87 113t36 125v41h244v-68q0 -68 -23.5 -129.5t-58.5 -104.5t-76.5 -88t-76.5 -81.5t-58.5 -84.5t-23.5 -97q0 -87 51.5 -132.5t142.5 -45.5q98 0 159.5 60t61.5 173h252q0 -231 -133 -348t-356 -117q-73 0 -139.5 14.5t-124 45.5 t-99.5 75.5t-66 108t-24 139.5zM410 956q0 66 43.5 108t113.5 42q73 0 115.5 -40t42.5 -103q0 -70 -42 -111t-116 -41q-70 0 -113.5 40t-43.5 105z" />
<glyph unicode="&#xc0;" horiz-adv-x="1413" d="M33 0l530 1475h285l530 -1475h-303l-108 334h-521l-108 -334h-305zM469 1714l111 199l364 -219l-92 -158zM522 571h367l-184 580z" />
<glyph unicode="&#xc1;" horiz-adv-x="1413" d="M33 0l530 1475h285l530 -1475h-303l-108 334h-521l-108 -334h-305zM453 1694l364 219l111 -199l-383 -178zM522 571h367l-184 580z" />
<glyph unicode="&#xc2;" horiz-adv-x="1413" d="M33 0l530 1475h285l530 -1475h-303l-108 334h-521l-108 -334h-305zM403 1661l215 229h162l224 -231l-119 -100l-180 135l-179 -135zM522 571h367l-184 580z" />
<glyph unicode="&#xc3;" horiz-adv-x="1413" d="M33 0l530 1475h285l530 -1475h-303l-108 334h-521l-108 -334h-305zM369 1632q65 205 190 205q54 0 143 -35t121 -35q28 0 44.5 14.5t37.5 61.5l127 -47q-44 -205 -192 -205q-52 0 -143.5 34t-114.5 34q-26 0 -44 -16t-40 -60zM522 571h367l-184 580z" />
<glyph unicode="&#xc4;" horiz-adv-x="1413" d="M33 0l530 1475h285l530 -1475h-303l-108 334h-521l-108 -334h-305zM350 1706q0 55 38.5 91t103.5 36q69 0 106 -35.5t37 -91.5t-39.5 -90.5t-103.5 -34.5q-67 0 -104.5 33.5t-37.5 91.5zM522 571h367l-184 580zM768 1706q0 55 38 91t103 36q69 0 106.5 -35.5t37.5 -91.5 t-40 -90.5t-104 -34.5q-67 0 -104 33.5t-37 91.5z" />
<glyph unicode="&#xc5;" horiz-adv-x="1413" d="M33 0l528 1468q-80 55 -80 164q0 97 64.5 156t163.5 59q95 0 158 -56.5t63 -150.5q0 -105 -82 -167l530 -1473h-303l-108 334h-521l-108 -334h-305zM522 571h367l-184 580zM614 1636q0 -86 95 -86q41 0 64.5 23.5t23.5 66.5t-22.5 66t-65.5 23q-45 0 -70 -25t-25 -68z " />
<glyph unicode="&#xc6;" horiz-adv-x="2074" d="M33 0l749 1475h1182v-250h-698v-355h635v-249h-635v-373h710v-248h-993v375h-440l-191 -375h-319zM631 606h352v629h-35z" />
<glyph unicode="&#xc7;" horiz-adv-x="1392" d="M102 737q0 163 43 301.5t124.5 241.5t209 161t287.5 58q240 0 394.5 -133t166.5 -385h-285q-4 53 -19.5 97t-46 82.5t-83.5 60.5t-125 22q-171 0 -266.5 -132.5t-95.5 -371.5q0 -250 99.5 -380t276.5 -130q123 0 220 44t192 126l129 -190q-227 -214 -506 -234l-18 -92 q37 -5 63 -12t55 -23t44.5 -47t15.5 -75q0 -92 -62.5 -140.5t-164.5 -48.5q-105 0 -179 33l31 117q61 -21 117 -21q40 0 62 16.5t22 45.5q0 32 -28 47.5t-93 15.5h-37l41 184q-146 11 -258.5 73t-183 164t-106.5 234.5t-36 290.5z" />
<glyph unicode="&#xc8;" horiz-adv-x="1241" d="M150 0v1475h980v-250h-698v-355h635v-249h-635v-373h711v-248h-993zM369 1716l110 199l365 -219l-92 -158z" />
<glyph unicode="&#xc9;" horiz-adv-x="1241" d="M150 0v1475h980v-250h-698v-355h635v-249h-635v-373h711v-248h-993zM403 1696l365 219l111 -199l-383 -178z" />
<glyph unicode="&#xca;" horiz-adv-x="1241" d="M150 0v1475h980v-250h-698v-355h635v-249h-635v-373h711v-248h-993zM346 1663l215 229h162l223 -231l-119 -100l-180 135l-178 -135z" />
<glyph unicode="&#xcb;" horiz-adv-x="1241" d="M150 0v1475h980v-250h-698v-355h635v-249h-635v-373h711v-248h-993zM291 1708q0 55 38 91t103 36q69 0 106 -35.5t37 -91.5t-39.5 -90.5t-103.5 -34.5q-67 0 -104 33.5t-37 91.5zM709 1708q0 55 38 91t103 36q69 0 106 -35.5t37 -91.5t-39.5 -90.5t-103.5 -34.5 q-67 0 -104 33.5t-37 91.5z" />
<glyph unicode="&#xcc;" horiz-adv-x="589" d="M47 1714l111 199l364 -219l-92 -158zM154 0v1475h282v-1475h-282z" />
<glyph unicode="&#xcd;" horiz-adv-x="589" d="M31 1694l364 219l111 -199l-383 -178zM154 0v1475h282v-1475h-282z" />
<glyph unicode="&#xce;" horiz-adv-x="589" d="M-14 1661l215 229h161l224 -231l-119 -100l-180 135l-178 -135zM154 0v1475h282v-1475h-282z" />
<glyph unicode="&#xcf;" horiz-adv-x="589" d="M-66 1706q0 55 38.5 91t103.5 36q69 0 106 -35.5t37 -91.5t-39.5 -90.5t-103.5 -34.5q-67 0 -104.5 33.5t-37.5 91.5zM154 0v1475h282v-1475h-282zM352 1706q0 55 38.5 91t103.5 36q69 0 106 -35.5t37 -91.5t-39.5 -90.5t-103.5 -34.5q-67 0 -104.5 33.5t-37.5 91.5z" />
<glyph unicode="&#xd0;" horiz-adv-x="1472" d="M10 627v227h152v621h481q361 0 550 -192.5t189 -549.5q0 -379 -193 -556t-587 -177h-440v627h-152zM446 258h207q224 0 327 115.5t103 359.5q0 241 -104 362.5t-326 121.5h-207v-363h332v-227h-332v-369z" />
<glyph unicode="&#xd1;" horiz-adv-x="1484" d="M150 0v1475h249l656 -998v998h280v-1475h-248l-659 985v-985h-278zM422 1632q65 205 190 205q53 0 142.5 -35t122.5 -35q28 0 43.5 14.5t37.5 61.5l127 -47q-44 -205 -192 -205q-52 0 -143.5 34t-114.5 34q-26 0 -44 -16t-40 -60z" />
<glyph unicode="&#xd2;" horiz-adv-x="1585" d="M102 745q0 352 191.5 553t511.5 201q321 0 511.5 -200.5t190.5 -553.5q0 -371 -189.5 -571.5t-512.5 -200.5q-159 0 -288 50.5t-221.5 147t-143 243t-50.5 331.5zM399 745q0 -246 107 -380t299 -134q194 0 299.5 133t105.5 381q0 229 -107 362.5t-296 133.5 q-192 0 -300 -134t-108 -362zM561 1714l111 199l364 -219l-92 -158z" />
<glyph unicode="&#xd3;" horiz-adv-x="1585" d="M102 745q0 352 191.5 553t511.5 201q321 0 511.5 -200.5t190.5 -553.5q0 -371 -189.5 -571.5t-512.5 -200.5q-159 0 -288 50.5t-221.5 147t-143 243t-50.5 331.5zM399 745q0 -246 107 -380t299 -134q194 0 299.5 133t105.5 381q0 229 -107 362.5t-296 133.5 q-192 0 -300 -134t-108 -362zM545 1694l364 219l111 -199l-383 -178z" />
<glyph unicode="&#xd4;" horiz-adv-x="1585" d="M102 745q0 352 191.5 553t511.5 201q321 0 511.5 -200.5t190.5 -553.5q0 -371 -189.5 -571.5t-512.5 -200.5q-159 0 -288 50.5t-221.5 147t-143 243t-50.5 331.5zM399 745q0 -246 107 -380t299 -134q194 0 299.5 133t105.5 381q0 229 -107 362.5t-296 133.5 q-192 0 -300 -134t-108 -362zM502 1661l215 229h162l223 -231l-119 -100l-180 135l-178 -135z" />
<glyph unicode="&#xd5;" horiz-adv-x="1585" d="M102 745q0 352 191.5 553t511.5 201q321 0 511.5 -200.5t190.5 -553.5q0 -371 -189.5 -571.5t-512.5 -200.5q-159 0 -288 50.5t-221.5 147t-143 243t-50.5 331.5zM399 745q0 -246 107 -380t299 -134q194 0 299.5 133t105.5 381q0 229 -107 362.5t-296 133.5 q-192 0 -300 -134t-108 -362zM481 1632q65 205 191 205q54 0 143 -35t121 -35q28 0 44.5 14.5t37.5 61.5l127 -47q-44 -205 -193 -205q-52 0 -143.5 34t-114.5 34q-26 0 -44 -16t-40 -60z" />
<glyph unicode="&#xd6;" horiz-adv-x="1585" d="M102 745q0 352 191.5 553t511.5 201q321 0 511.5 -200.5t190.5 -553.5q0 -371 -189.5 -571.5t-512.5 -200.5q-159 0 -288 50.5t-221.5 147t-143 243t-50.5 331.5zM399 745q0 -246 107 -380t299 -134q194 0 299.5 133t105.5 381q0 229 -107 362.5t-296 133.5 q-192 0 -300 -134t-108 -362zM449 1706q0 55 38 91t103 36q69 0 106 -35.5t37 -91.5t-39.5 -90.5t-103.5 -34.5q-67 0 -104 33.5t-37 91.5zM866 1706q0 55 38.5 91t103.5 36q69 0 106 -35.5t37 -91.5t-39.5 -90.5t-103.5 -34.5q-67 0 -104.5 33.5t-37.5 91.5z" />
<glyph unicode="&#xd7;" horiz-adv-x="1228" d="M170 283l317 317l-317 315l125 125l315 -317l318 317l131 -131l-318 -315l318 -318l-125 -124l-318 319l-315 -319z" />
<glyph unicode="&#xd8;" horiz-adv-x="1585" d="M102 745q0 352 191.5 553t511.5 201q47 0 94 -6l37 119h242l-54 -176q182 -83 282.5 -260.5t100.5 -430.5q0 -371 -189.5 -571.5t-512.5 -200.5q-33 0 -125 9l-43 -146h-240l64 211q-171 87 -265 264.5t-94 433.5zM399 745q0 -291 146 -421l278 917h-16q-192 0 -300 -134 t-108 -362zM758 233q14 -2 47 -2q194 0 299.5 133t105.5 381q0 142 -43 250.5t-125 171.5z" />
<glyph unicode="&#xd9;" horiz-adv-x="1456" d="M143 557v918h283v-906q0 -171 80 -257.5t223 -86.5q156 0 228.5 85t72.5 259v906h283v-918q0 -288 -151 -435t-435 -147q-280 0 -432 143.5t-152 438.5zM481 1714l111 199l364 -219l-92 -158z" />
<glyph unicode="&#xda;" horiz-adv-x="1456" d="M143 557v918h283v-906q0 -171 80 -257.5t223 -86.5q156 0 228.5 85t72.5 259v906h283v-918q0 -288 -151 -435t-435 -147q-280 0 -432 143.5t-152 438.5zM518 1694l365 219l110 -199l-383 -178z" />
<glyph unicode="&#xdb;" horiz-adv-x="1456" d="M143 557v918h283v-906q0 -171 80 -257.5t223 -86.5q156 0 228.5 85t72.5 259v906h283v-918q0 -288 -151 -435t-435 -147q-280 0 -432 143.5t-152 438.5zM444 1661l215 229h162l223 -231l-118 -100l-181 135l-178 -135z" />
<glyph unicode="&#xdc;" horiz-adv-x="1456" d="M143 557v918h283v-906q0 -171 80 -257.5t223 -86.5q156 0 228.5 85t72.5 259v906h283v-918q0 -288 -151 -435t-435 -147q-280 0 -432 143.5t-152 438.5zM395 1706q0 55 38.5 91t103.5 36q69 0 106 -35.5t37 -91.5t-39.5 -90.5t-103.5 -34.5q-67 0 -104.5 33.5t-37.5 91.5 zM813 1706q0 55 38 91t103 36q69 0 106.5 -35.5t37.5 -91.5t-40 -90.5t-104 -34.5q-67 0 -104 33.5t-37 91.5z" />
<glyph unicode="&#xdd;" horiz-adv-x="1308" d="M20 1475h310l319 -607l322 607h317l-500 -887v-588h-284v588zM461 1694l364 219l111 -199l-383 -178z" />
<glyph unicode="&#xde;" horiz-adv-x="1265" d="M123 0v1475h285v-213h249q241 0 380 -114t139 -351q0 -166 -68 -279t-187 -165t-284 -52h-229v-301h-285zM408 532h215q276 0 276 244q0 120 -64 180t-200 60h-227v-484z" />
<glyph unicode="&#xdf;" horiz-adv-x="1273" d="M49 881v159l141 27v39q0 88 27 157t71 113t106.5 73t128.5 40.5t141 11.5q208 0 321 -95t113 -284q0 -132 -72 -225.5t-195 -122.5q173 -30 267 -127.5t94 -265.5q0 -190 -113.5 -298t-292.5 -108q-68 0 -141.5 22t-122.5 60l56 181q64 -41 159 -41q81 0 134 54t53 155 q0 121 -83.5 181.5t-246.5 74.5v204q244 21 244 234q0 203 -191 203q-96 0 -141 -55.5t-45 -172.5v-1075h-271v881h-141z" />
<glyph unicode="&#xe0;" horiz-adv-x="1134" d="M86 291q0 68 26 126.5t81 108.5t154 78.5t233 28.5q85 0 153 -8v80q0 184 -184 184q-90 0 -159.5 -25t-160.5 -78l-92 164q91 71 207 113.5t234 42.5q428 0 428 -397v-709h-218l-28 145q-117 -172 -340 -172q-151 0 -242.5 82t-91.5 236zM299 1444l141 170l320 -293 l-121 -135zM356 295q0 -121 148 -121q100 0 164.5 75.5t64.5 166.5v28q-57 11 -129 11q-248 0 -248 -160z" />
<glyph unicode="&#xe1;" horiz-adv-x="1134" d="M86 291q0 68 26 126.5t81 108.5t154 78.5t233 28.5q85 0 153 -8v80q0 184 -184 184q-90 0 -159.5 -25t-160.5 -78l-92 164q91 71 207 113.5t234 42.5q428 0 428 -397v-709h-218l-28 145q-117 -172 -340 -172q-151 0 -242.5 82t-91.5 236zM344 1321l320 293l141 -170 l-340 -258zM356 295q0 -121 148 -121q100 0 164.5 75.5t64.5 166.5v28q-57 11 -129 11q-248 0 -248 -160z" />
<glyph unicode="&#xe2;" horiz-adv-x="1134" d="M86 291q0 68 26 126.5t81 108.5t154 78.5t233 28.5q85 0 153 -8v80q0 184 -184 184q-90 0 -159.5 -25t-160.5 -78l-92 164q91 71 207 113.5t234 42.5q428 0 428 -397v-709h-218l-28 145q-117 -172 -340 -172q-151 0 -242.5 82t-91.5 236zM248 1262l227 297h162l227 -295 l-119 -84l-186 182l-186 -182zM356 295q0 -121 148 -121q100 0 164.5 75.5t64.5 166.5v28q-57 11 -129 11q-248 0 -248 -160z" />
<glyph unicode="&#xe3;" horiz-adv-x="1134" d="M86 291q0 68 26 126.5t81 108.5t154 78.5t233 28.5q85 0 153 -8v80q0 184 -184 184q-90 0 -159.5 -25t-160.5 -78l-92 164q91 71 207 113.5t234 42.5q428 0 428 -397v-709h-218l-28 145q-117 -172 -340 -172q-151 0 -242.5 82t-91.5 236zM219 1257q65 205 191 205 q54 0 143 -34.5t121 -34.5q28 0 44.5 14.5t37.5 60.5l127 -47q-44 -204 -193 -204q-52 0 -143.5 33.5t-114.5 33.5q-26 0 -44 -16t-40 -60zM356 295q0 -121 148 -121q100 0 164.5 75.5t64.5 166.5v28q-57 11 -129 11q-248 0 -248 -160z" />
<glyph unicode="&#xe4;" horiz-adv-x="1134" d="M86 291q0 68 26 126.5t81 108.5t154 78.5t233 28.5q85 0 153 -8v80q0 184 -184 184q-90 0 -159.5 -25t-160.5 -78l-92 164q91 71 207 113.5t234 42.5q428 0 428 -397v-709h-218l-28 145q-117 -172 -340 -172q-151 0 -242.5 82t-91.5 236zM207 1343q0 55 38 91t103 36 q69 0 106.5 -35.5t37.5 -91.5t-40 -90t-104 -34q-67 0 -104 33t-37 91zM356 295q0 -121 148 -121q100 0 164.5 75.5t64.5 166.5v28q-57 11 -129 11q-248 0 -248 -160zM625 1343q0 55 38 91t103 36q69 0 106 -35.5t37 -91.5t-39.5 -90t-103.5 -34q-67 0 -104 33t-37 91z" />
<glyph unicode="&#xe5;" horiz-adv-x="1134" d="M86 291q0 68 26 126.5t81 108.5t154 78.5t233 28.5q85 0 153 -8v80q0 184 -184 184q-90 0 -159.5 -25t-160.5 -78l-92 164q91 71 207 113.5t234 42.5q428 0 428 -397v-709h-218l-28 145q-117 -172 -340 -172q-151 0 -242.5 82t-91.5 236zM340 1364q0 89 59 144t150 55 q89 0 147 -52t58 -139t-58.5 -140.5t-146.5 -53.5q-95 0 -152 49t-57 137zM356 295q0 -121 148 -121q100 0 164.5 75.5t64.5 166.5v28q-57 11 -129 11q-248 0 -248 -160zM463 1368q0 -80 86 -80q38 0 60 22t22 62q0 80 -82 80q-41 0 -63.5 -22t-22.5 -62z" />
<glyph unicode="&#xe6;" horiz-adv-x="1808" d="M86 297q0 69 24 127t76 107.5t144.5 77.5t218.5 28q92 0 184 -14v82q0 192 -196 192q-169 0 -326 -96l-74 170q88 61 204.5 98t227.5 37q121 0 200 -35.5t132 -126.5q58 76 156.5 119t220.5 43q213 0 328.5 -131t115.5 -389q0 -95 -4 -131h-698q21 -256 268 -256 q79 0 151.5 21.5t166.5 70.5l88 -178q-189 -140 -439 -140q-260 0 -397 158q-72 -77 -173.5 -117.5t-213.5 -40.5q-181 0 -283 82.5t-102 241.5zM358 307q0 -64 40 -97.5t114 -33.5q80 0 148 34.5t108 82.5q-28 66 -31 151q-54 13 -114 13q-265 0 -265 -150zM1022 633h440 q0 268 -202 268q-64 0 -112.5 -27.5t-74.5 -70.5t-38.5 -86.5t-12.5 -83.5z" />
<glyph unicode="&#xe7;" horiz-adv-x="1134" d="M94 539q0 258 146.5 412.5t386.5 154.5q207 0 320.5 -111t119.5 -321h-227q-10 105 -65 158t-144 53q-117 0 -183.5 -86.5t-66.5 -249.5q0 -161 67.5 -254.5t198.5 -93.5q80 0 148.5 24t158.5 74l101 -172q-165 -137 -400 -152l-16 -81q29 -4 50 -8.5t46.5 -15.5t42 -27 t28 -43.5t11.5 -63.5q0 -92 -62.5 -140.5t-164.5 -48.5q-104 0 -178 33l30 117q61 -21 117 -21q40 0 62 16.5t22 45.5q0 32 -28 47.5t-93 15.5h-37l39 179q-198 25 -314 171.5t-116 387.5z" />
<glyph unicode="&#xe8;" horiz-adv-x="1124" d="M94 532q0 262 141.5 418t382.5 156q226 0 345.5 -132t119.5 -392q0 -97 -4 -133h-698q20 -250 268 -250q79 0 151.5 21.5t166.5 70.5l88 -178q-189 -140 -439 -140q-247 0 -384.5 145t-137.5 414zM336 1444l141 170l320 -293l-121 -135zM383 645h440q0 54 -10 98 t-32.5 80.5t-63 57t-96.5 20.5q-63 0 -111.5 -27t-74 -69t-38 -82t-14.5 -78z" />
<glyph unicode="&#xe9;" horiz-adv-x="1124" d="M94 532q0 262 141.5 418t382.5 156q226 0 345.5 -132t119.5 -392q0 -97 -4 -133h-698q20 -250 268 -250q79 0 151.5 21.5t166.5 70.5l88 -178q-189 -140 -439 -140q-247 0 -384.5 145t-137.5 414zM360 1321l320 293l141 -170l-340 -258zM383 645h440q0 54 -10 98 t-32.5 80.5t-63 57t-96.5 20.5q-63 0 -111.5 -27t-74 -69t-38 -82t-14.5 -78z" />
<glyph unicode="&#xea;" horiz-adv-x="1124" d="M94 532q0 262 141.5 418t382.5 156q226 0 345.5 -132t119.5 -392q0 -97 -4 -133h-698q20 -250 268 -250q79 0 151.5 21.5t166.5 70.5l88 -178q-189 -140 -439 -140q-247 0 -384.5 145t-137.5 414zM289 1262l227 297h162l227 -295l-119 -84l-186 182l-186 -182zM383 645 h440q0 54 -10 98t-32.5 80.5t-63 57t-96.5 20.5q-63 0 -111.5 -27t-74 -69t-38 -82t-14.5 -78z" />
<glyph unicode="&#xeb;" horiz-adv-x="1124" d="M94 532q0 262 141.5 418t382.5 156q226 0 345.5 -132t119.5 -392q0 -97 -4 -133h-698q20 -250 268 -250q79 0 151.5 21.5t166.5 70.5l88 -178q-189 -140 -439 -140q-247 0 -384.5 145t-137.5 414zM238 1343q0 55 38 91t103 36q69 0 106 -35.5t37 -91.5t-39.5 -90 t-103.5 -34q-67 0 -104 33t-37 91zM383 645h440q0 54 -10 98t-32.5 80.5t-63 57t-96.5 20.5q-63 0 -111.5 -27t-74 -69t-38 -82t-14.5 -78zM655 1343q0 55 38.5 91t103.5 36q69 0 106 -35.5t37 -91.5t-39.5 -90t-103.5 -34q-67 0 -104.5 33.5t-37.5 90.5z" />
<glyph unicode="&#xec;" horiz-adv-x="528" d="M31 1444l141 170l320 -293l-121 -135zM150 0v1081h270v-1081h-270z" />
<glyph unicode="&#xed;" horiz-adv-x="528" d="M25 1321l319 293l141 -170l-340 -258zM150 0v1081h270v-1081h-270z" />
<glyph unicode="&#xee;" horiz-adv-x="528" d="M-45 1262l227 297h162l227 -295l-118 -84l-187 182l-186 -182zM150 0v1081h270v-1081h-270z" />
<glyph unicode="&#xef;" horiz-adv-x="528" d="M-80 1343q0 55 38 91t103 36q69 0 106.5 -35.5t37.5 -91.5t-40 -90t-104 -34q-67 0 -104 33t-37 91zM150 0v1081h270v-1081h-270zM338 1343q0 55 38 91t103 36q69 0 106.5 -35.5t37.5 -91.5t-40 -90t-104 -34q-67 0 -104 33t-37 91z" />
<glyph unicode="&#xf0;" horiz-adv-x="1159" d="M92 440q0 209 110 339t296 130q179 0 319 -143q-21 203 -133 330l-154 -109l-114 154l110 78q-106 56 -250 86l62 176q218 -26 381 -125l172 121l115 -152l-136 -96q197 -226 197 -615q0 -302 -130.5 -471.5t-379.5 -169.5q-207 0 -336 122t-129 345zM348 436 q0 -126 61 -189t160 -63q121 0 183 98.5t61 290.5q-45 51 -109 87t-139 36q-96 0 -156.5 -67t-60.5 -193z" />
<glyph unicode="&#xf1;" horiz-adv-x="1159" d="M137 0v1081h228l22 -143q65 74 154 121t196 47q168 0 255 -100.5t87 -280.5v-725h-272v643q0 120 -41.5 175.5t-128.5 55.5q-72 0 -131 -38t-96 -82v-754h-273zM285 1257q65 205 190 205q53 0 142 -34.5t122 -34.5q28 0 44.5 14.5t37.5 60.5l127 -47q-44 -204 -192 -204 q-52 0 -143.5 33.5t-114.5 33.5q-26 0 -44 -16t-40 -60z" />
<glyph unicode="&#xf2;" horiz-adv-x="1216" d="M94 535q0 137 41 246t114 179.5t171 108t215 37.5q238 0 386 -147.5t148 -417.5q0 -269 -152 -418.5t-396 -149.5q-246 0 -386.5 146.5t-140.5 415.5zM381 541q0 -173 67.5 -255.5t182.5 -82.5q116 0 184 82.5t68 255.5q0 172 -68.5 256t-183.5 84q-113 0 -181.5 -86.5 t-68.5 -253.5zM383 1444l141 170l320 -293l-121 -135z" />
<glyph unicode="&#xf3;" horiz-adv-x="1216" d="M94 535q0 137 41 246t114 179.5t171 108t215 37.5q238 0 386 -147.5t148 -417.5q0 -269 -152 -418.5t-396 -149.5q-246 0 -386.5 146.5t-140.5 415.5zM381 541q0 -173 67.5 -255.5t182.5 -82.5q116 0 184 82.5t68 255.5q0 172 -68.5 256t-183.5 84q-113 0 -181.5 -86.5 t-68.5 -253.5zM385 1321l320 293l141 -170l-340 -258z" />
<glyph unicode="&#xf4;" horiz-adv-x="1216" d="M94 535q0 137 41 246t114 179.5t171 108t215 37.5q238 0 386 -147.5t148 -417.5q0 -269 -152 -418.5t-396 -149.5q-246 0 -386.5 146.5t-140.5 415.5zM326 1262l227 297h162l227 -295l-119 -84l-186 182l-186 -182zM381 541q0 -173 67.5 -255.5t182.5 -82.5 q116 0 184 82.5t68 255.5q0 172 -68.5 256t-183.5 84q-113 0 -181.5 -86.5t-68.5 -253.5z" />
<glyph unicode="&#xf5;" horiz-adv-x="1216" d="M94 535q0 137 41 246t114 179.5t171 108t215 37.5q238 0 386 -147.5t148 -417.5q0 -269 -152 -418.5t-396 -149.5q-246 0 -386.5 146.5t-140.5 415.5zM299 1257q65 205 190 205q53 0 143 -34.5t122 -34.5q28 0 44.5 14.5t37.5 60.5l127 -47q-44 -204 -193 -204 q-52 0 -143.5 33.5t-114.5 33.5q-26 0 -44 -16t-40 -60zM381 541q0 -173 67.5 -255.5t182.5 -82.5q116 0 184 82.5t68 255.5q0 172 -68.5 256t-183.5 84q-113 0 -181.5 -86.5t-68.5 -253.5z" />
<glyph unicode="&#xf6;" horiz-adv-x="1216" d="M94 535q0 137 41 246t114 179.5t171 108t215 37.5q238 0 386 -147.5t148 -417.5q0 -269 -152 -418.5t-396 -149.5q-246 0 -386.5 146.5t-140.5 415.5zM274 1343q0 55 38.5 91t103.5 36q69 0 106 -35.5t37 -91.5t-39.5 -90t-103.5 -34q-67 0 -104.5 33.5t-37.5 90.5z M381 541q0 -173 67.5 -255.5t182.5 -82.5q116 0 184 82.5t68 255.5q0 172 -68.5 256t-183.5 84q-113 0 -181.5 -86.5t-68.5 -253.5zM692 1343q0 55 38.5 91t103.5 36q69 0 106 -35.5t37 -91.5t-39.5 -90t-103.5 -34q-67 0 -104.5 33.5t-37.5 90.5z" />
<glyph unicode="&#xf7;" horiz-adv-x="1228" d="M82 516v172h1065v-172h-1065zM494 250q0 47 35.5 83t82.5 36q49 0 83 -35.5t34 -83.5q0 -47 -34 -82t-85 -35q-46 0 -81 35.5t-35 81.5zM496 958q0 48 34.5 83.5t83.5 35.5q47 0 81 -35t34 -84q0 -47 -33 -80.5t-82 -33.5t-83.5 34t-34.5 80z" />
<glyph unicode="&#xf8;" horiz-adv-x="1222" d="M94 535q0 137 41 246t114 179.5t171 108t215 37.5q24 0 74 -4l34 112h203l-51 -165q128 -63 201 -193t73 -315q0 -269 -152 -418.5t-396 -149.5q-44 0 -62 2l-41 -131h-201l56 176q-134 61 -206.5 192.5t-72.5 322.5zM381 541q0 -174 72 -262l186 602h-8 q-113 0 -181.5 -86.5t-68.5 -253.5zM629 203h2q116 0 184 82.5t68 255.5q0 167 -68 254z" />
<glyph unicode="&#xf9;" horiz-adv-x="1198" d="M129 348v733h272v-667q0 -106 36.5 -158.5t125.5 -52.5q124 0 225 116v762h273v-1081h-223l-23 141q-149 -168 -342 -168q-344 0 -344 375zM348 1444l141 170l320 -293l-121 -135z" />
<glyph unicode="&#xfa;" horiz-adv-x="1198" d="M129 348v733h272v-667q0 -106 36.5 -158.5t125.5 -52.5q124 0 225 116v762h273v-1081h-223l-23 141q-149 -168 -342 -168q-344 0 -344 375zM393 1321l320 293l141 -170l-340 -258z" />
<glyph unicode="&#xfb;" horiz-adv-x="1198" d="M129 348v733h272v-667q0 -106 36.5 -158.5t125.5 -52.5q124 0 225 116v762h273v-1081h-223l-23 141q-149 -168 -342 -168q-344 0 -344 375zM297 1262l227 297h162l227 -295l-118 -84l-187 182l-186 -182z" />
<glyph unicode="&#xfc;" horiz-adv-x="1198" d="M129 348v733h272v-667q0 -106 36.5 -158.5t125.5 -52.5q124 0 225 116v762h273v-1081h-223l-23 141q-149 -168 -342 -168q-344 0 -344 375zM244 1343q0 55 38 91t103 36q69 0 106 -35.5t37 -91.5t-39.5 -90t-103.5 -34q-67 0 -104 33t-37 91zM662 1343q0 55 38 91t103 36 q69 0 106 -35.5t37 -91.5t-39.5 -90t-103.5 -34q-67 0 -104 33t-37 91z" />
<glyph unicode="&#xfd;" horiz-adv-x="1087" d="M33 1081h284l224 -798l241 798h273l-365 -1038q-72 -205 -108 -273q-60 -114 -151 -154q-72 -32 -183 -32q-87 0 -182 25l20 192q77 -14 137 -14q65 0 105.5 30t70.5 122l11 30zM346 1321l320 293l141 -170l-340 -258z" />
<glyph unicode="&#xfe;" horiz-adv-x="1230" d="M137 -410v1885h266v-537q66 77 156.5 122.5t196.5 45.5q193 0 304 -144.5t111 -416.5q0 -270 -113.5 -420t-334.5 -150q-109 0 -187.5 41.5t-125.5 92.5v-519h-273zM410 326q37 -50 96 -86.5t133 -36.5q248 0 248 332q0 346 -236 346q-71 0 -128.5 -39.5t-112.5 -102.5 v-413z" />
<glyph unicode="&#xff;" horiz-adv-x="1087" d="M33 1081h284l224 -798l241 798h273l-365 -1038q-72 -205 -108 -273q-60 -114 -151 -154q-72 -32 -183 -32q-87 0 -182 25l20 192q77 -14 137 -14q65 0 105.5 30t70.5 122l11 30zM197 1343q0 55 38 91t103 36q69 0 106 -35.5t37 -91.5t-39.5 -90t-103.5 -34q-67 0 -104 33 t-37 91zM614 1343q0 55 38.5 91t103.5 36q69 0 106 -35.5t37 -91.5t-39.5 -90t-103.5 -34q-67 0 -104.5 33.5t-37.5 90.5z" />
<glyph unicode="&#x152;" horiz-adv-x="2293" d="M102 748q0 183 49.5 327t139 236.5t210.5 141t267 48.5q155 0 277 -66t182 -184v224h958v-250h-700v-355h637v-249h-637v-371h710v-250h-968v231q-62 -123 -189.5 -189.5t-292.5 -66.5q-142 0 -259 48.5t-203 143t-133.5 243t-47.5 338.5zM399 748q0 -247 106.5 -381 t299.5 -134q184 0 292.5 127.5t108.5 384.5q0 245 -107.5 370.5t-293.5 125.5q-191 0 -298.5 -132.5t-107.5 -360.5z" />
<glyph unicode="&#x153;" horiz-adv-x="1941" d="M94 535q0 136 40.5 246t111.5 180t165.5 107.5t204.5 37.5q278 0 396 -244q45 105 146.5 174.5t242.5 69.5q220 0 337 -130.5t117 -389.5q0 -108 -6 -135h-696q13 -114 78 -183t192 -69q83 0 155 21t163 73l92 -184q-188 -136 -430 -136q-149 0 -249 61t-150 167 q-127 -228 -410 -228q-226 0 -363 148t-137 414zM381 541q0 -175 67.5 -258.5t182.5 -83.5q116 0 184 83.5t68 258.5q0 174 -68.5 259t-183.5 85q-113 0 -181.5 -87.5t-68.5 -256.5zM1155 633h440q-2 128 -48 198t-156 70q-51 0 -92.5 -18.5t-67 -47t-43 -66t-25 -71 t-8.5 -65.5z" />
<glyph unicode="&#x178;" horiz-adv-x="1308" d="M20 1475h310l319 -607l322 607h317l-500 -887v-588h-284v588zM305 1706q0 55 38 91t103 36q69 0 106.5 -35.5t37.5 -91.5t-40 -90.5t-104 -34.5q-67 0 -104 33.5t-37 91.5zM723 1706q0 55 38 91t103 36q69 0 106.5 -35.5t37.5 -91.5t-40 -90.5t-104 -34.5 q-67 0 -104 33.5t-37 91.5z" />
<glyph unicode="&#x2c6;" d="M205 1262l227 297h162l227 -295l-119 -84l-186 182l-186 -182z" />
<glyph unicode="&#x2dc;" d="M184 1257q65 205 191 205q53 0 142 -34.5t122 -34.5q28 0 44.5 14.5t37.5 60.5l127 -47q-44 -204 -193 -204q-52 0 -143.5 33.5t-114.5 33.5q-26 0 -44 -16t-40 -60z" />
<glyph unicode="&#x2000;" horiz-adv-x="957" />
<glyph unicode="&#x2001;" horiz-adv-x="1915" />
<glyph unicode="&#x2002;" horiz-adv-x="957" />
<glyph unicode="&#x2003;" horiz-adv-x="1915" />
<glyph unicode="&#x2004;" horiz-adv-x="638" />
<glyph unicode="&#x2005;" horiz-adv-x="478" />
<glyph unicode="&#x2006;" horiz-adv-x="319" />
<glyph unicode="&#x2007;" horiz-adv-x="319" />
<glyph unicode="&#x2008;" horiz-adv-x="239" />
<glyph unicode="&#x2009;" horiz-adv-x="383" />
<glyph unicode="&#x200a;" horiz-adv-x="106" />
<glyph unicode="&#x2010;" horiz-adv-x="671" d="M61 461v215h549v-215h-549z" />
<glyph unicode="&#x2011;" horiz-adv-x="671" d="M61 461v215h549v-215h-549z" />
<glyph unicode="&#x2012;" horiz-adv-x="671" d="M61 461v215h549v-215h-549z" />
<glyph unicode="&#x2013;" d="M0 463v174h1024v-174h-1024z" />
<glyph unicode="&#x2014;" horiz-adv-x="2048" d="M0 461v176h2048v-176h-2048z" />
<glyph unicode="&#x2018;" horiz-adv-x="421" d="M63 1221q0 236 250 315l39 -92q-70 -30 -101.5 -70t-33.5 -96q16 8 39 8q46 0 75 -31.5t29 -78.5q0 -55 -39.5 -91t-101.5 -36q-79 0 -117.5 48.5t-38.5 123.5z" />
<glyph unicode="&#x2019;" horiz-adv-x="421" d="M61 1354q0 55 40 91t102 36q78 0 116.5 -48.5t38.5 -123.5q0 -237 -249 -316l-39 92q70 30 101.5 70t33.5 96q-16 -8 -39 -8q-46 0 -75.5 32t-29.5 79z" />
<glyph unicode="&#x201a;" horiz-adv-x="421" d="M70 86q0 55 39.5 91t101.5 36q79 0 117.5 -48.5t38.5 -123.5q0 -236 -250 -315l-39 92q70 30 101.5 70t33.5 96q-18 -9 -39 -9q-46 0 -75 32t-29 79z" />
<glyph unicode="&#x201c;" horiz-adv-x="782" d="M63 1221q0 236 250 315l39 -92q-70 -30 -101.5 -70t-33.5 -96q16 8 39 8q46 0 75 -31.5t29 -78.5q0 -55 -39.5 -91t-101.5 -36q-79 0 -117.5 48.5t-38.5 123.5zM424 1221q0 236 250 315l39 -92q-70 -30 -101.5 -70t-33.5 -96q16 8 38 8q46 0 75.5 -31.5t29.5 -78.5 q0 -55 -39.5 -91t-101.5 -36q-79 0 -117.5 48.5t-38.5 123.5z" />
<glyph unicode="&#x201d;" horiz-adv-x="782" d="M61 1354q0 55 40 91t102 36q78 0 116.5 -48.5t38.5 -123.5q0 -237 -249 -316l-39 92q70 30 101.5 70t33.5 96q-16 -8 -39 -8q-46 0 -75.5 32t-29.5 79zM422 1354q0 55 39.5 91t101.5 36q79 0 117.5 -48.5t38.5 -123.5q0 -237 -250 -316l-39 92q70 30 101.5 70t33.5 96 q-16 -8 -39 -8q-46 0 -75 32t-29 79z" />
<glyph unicode="&#x201e;" horiz-adv-x="780" d="M70 86q0 55 39.5 91t101.5 36q79 0 117.5 -48.5t38.5 -123.5q0 -236 -250 -315l-39 92q70 30 101.5 70t33.5 96q-18 -9 -39 -9q-46 0 -75 32t-29 79zM428 86q0 55 39.5 91t101.5 36q79 0 117.5 -48.5t38.5 -123.5q0 -236 -250 -315l-39 92q70 30 101.5 70t33.5 96 q-18 -9 -39 -9q-46 0 -75 32t-29 79z" />
<glyph unicode="&#x2022;" d="M246 639q0 114 79.5 192t190.5 78q109 0 189.5 -78t80.5 -192t-79.5 -193t-192.5 -79q-114 0 -191 80t-77 192z" />
<glyph unicode="&#x2026;" horiz-adv-x="1781" d="M158 117q0 70 41 110.5t114 40.5q72 0 115 -40t43 -105q0 -67 -43.5 -108.5t-114.5 -41.5q-73 0 -114 40t-41 104zM731 117q0 70 41.5 110.5t114.5 40.5q71 0 114 -40t43 -105q0 -67 -43 -108.5t-114 -41.5q-73 0 -114.5 40.5t-41.5 103.5zM1311 117q0 70 41 110.5 t114 40.5q72 0 115 -40t43 -105q0 -67 -43.5 -108.5t-114.5 -41.5q-73 0 -114 40t-41 104z" />
<glyph unicode="&#x202f;" horiz-adv-x="383" />
<glyph unicode="&#x2039;" horiz-adv-x="559" d="M68 492v83l325 297l113 -106l-199 -234l199 -229l-113 -102z" />
<glyph unicode="&#x203a;" horiz-adv-x="559" d="M53 303l199 229l-199 234l113 106l326 -297v-83l-326 -291z" />
<glyph unicode="&#x205f;" horiz-adv-x="478" />
<glyph unicode="&#x20ac;" horiz-adv-x="1261" d="M-25 492l15 157h145q-4 54 -4 72q0 43 2 70h-133l12 157h142q24 110 74.5 204.5t123.5 167t174 114t217 41.5q136 0 259 -54t215 -170l-132 -137q-64 70 -153.5 112t-181.5 42q-129 0 -215 -86t-123 -234h592l-13 -157h-602q-2 -27 -2 -68q0 -20 4 -74h588l-14 -157h-547 q32 -139 121.5 -216t214.5 -77q190 0 348 139l119 -154q-118 -109 -239 -160t-267 -51q-147 0 -266.5 69t-192.5 185t-100 265h-181z" />
<glyph unicode="&#x2122;" horiz-adv-x="1302" d="M59 1362v113h469v-113h-174v-430h-121v430h-174zM582 932l59 543h137l129 -371l127 371h129l62 -543h-115l-35 358l-127 -358h-90l-123 358l-37 -358h-116z" />
<glyph unicode="&#x25fc;" horiz-adv-x="1085" d="M0 0v1085h1085v-1085h-1085z" />
</font>
</defs>
</svg>
