<?xml version="1.0" standalone="no"?>
<!DOCTYPE svg PUBLIC "-//W3C//DTD SVG 1.1//EN" "http://www.w3.org/Graphics/SVG/1.1/DTD/svg11.dtd" >
<svg xmlns="http://www.w3.org/2000/svg" xmlns:xlink="http://www.w3.org/1999/xlink" version="1.1">
<metadata></metadata>
<defs>
<font id="quatro_slabregular" horiz-adv-x="1548" >
<font-face units-per-em="2048" ascent="1638" descent="-410" />
<missing-glyph horiz-adv-x="512" />
<glyph unicode="&#xfb01;" horiz-adv-x="1232" d="M74 975v100l157 27v143q0 163 93.5 252.5t257.5 89.5q111 0 204 -26v-193h-71q-45 96 -146 96q-70 0 -115.5 -50t-45.5 -144v-168h618v-866q0 -65 20 -96t72 -31q41 0 51 2v-117q-55 -10 -102 -10q-217 0 -217 206v730q0 22 -8 33.5t-18 13.5t-29 2h-387v-807 q0 -22 8 -33.5t18 -13.5t29 -2h90v-113h-465v113h88q19 0 29 2t18 13.5t8 33.5v756q0 26 -16 41.5t-41 15.5h-100zM842 1368v195h188v-195h-188z" />
<glyph unicode="&#xfb02;" horiz-adv-x="1320" d="M74 975v100l157 27v143q0 160 99.5 251t253.5 91q144 0 274 -65v-199h-110q-8 55 -57 96t-116 41q-86 0 -126.5 -58t-40.5 -132v-168h274v-133h-274v-807q0 -22 8 -33.5t18 -13.5t29 -2h90v-113h-465v113h88q19 0 29 2t18 13.5t8 33.5v756q0 26 -16 41.5t-41 15.5h-100z M788 0v113h89q19 0 29 2t18 13.5t8 33.5v1401h176v-1401q0 -22 8 -33.5t18 -13.5t29 -2h90v-113h-465z" />
<glyph unicode="&#xfb03;" horiz-adv-x="1890" d="M74 969v106l157 27v143q0 160 86.5 251t223.5 91q132 0 262 -65v-199h-111q-17 60 -61.5 98.5t-98.5 38.5q-40 0 -66.5 -17t-38 -48.5t-15.5 -59.5t-4 -65v-168h481v143q0 163 93 252.5t257 89.5q112 0 205 -26v-193h-72q-45 96 -145 96q-70 0 -116 -50t-46 -144v-168 h618v-866q0 -65 20.5 -96t72.5 -31q41 0 51 2v-117q-55 -10 -103 -10q-217 0 -217 206v730q0 22 -8 33.5t-18 13.5t-29 2h-387v-807q0 -22 8 -33.5t18 -13.5t29 -2h90v-113h-465v113h89q19 0 29 2t18 13.5t8 33.5v749q0 26 -16.5 42t-41.5 16h-423v-807q0 -22 8 -33.5 t18 -13.5t29 -2h90v-113h-465v113h88q19 0 29 2t18 13.5t8 33.5v749q0 26 -16 42t-41 16h-100zM1499 1368v195h189v-195h-189z" />
<glyph unicode="&#xfb04;" horiz-adv-x="1978" d="M74 969v106l157 27v143q0 160 86.5 251t223.5 91q132 0 262 -65v-199h-111q-17 60 -61.5 98.5t-98.5 38.5q-40 0 -66.5 -17t-38 -48.5t-15.5 -59.5t-4 -65v-168h481v143q0 160 99 251t253 91q145 0 275 -65v-199h-111q-8 55 -56.5 96t-115.5 41q-45 0 -79.5 -18 t-52.5 -47t-27 -60.5t-9 -64.5v-168h274v-133h-274v-807q0 -22 8 -33.5t18 -13.5t29 -2h90v-113h-465v113h89q19 0 29 2t18 13.5t8 33.5v749q0 23 -14.5 39t-36.5 19h-430v-807q0 -22 8 -33.5t18 -13.5t29 -2h90v-113h-465v113h88q19 0 29 2t18 13.5t8 33.5v749q0 26 -16 42 t-41 16h-100zM1446 0v113h88q19 0 29 2t18 13.5t8 33.5v1401h176v-1401q0 -22 8.5 -33.5t18.5 -13.5t29 -2h90v-113h-465z" />
<glyph horiz-adv-x="0" />
<glyph horiz-adv-x="0" />
<glyph horiz-adv-x="682" />
<glyph unicode="&#xd;" horiz-adv-x="471" />
<glyph unicode=" "  horiz-adv-x="512" />
<glyph unicode="&#x09;" horiz-adv-x="512" />
<glyph unicode="&#xa0;" horiz-adv-x="512" />
<glyph unicode="!" horiz-adv-x="620" d="M188 0v233h246v-233h-246zM213 778v697h195v-697l-52 -321h-94z" />
<glyph unicode="&#x22;" horiz-adv-x="790" d="M154 834v538h133v-538h-133zM504 834v538h133v-538h-133z" />
<glyph unicode="#" horiz-adv-x="1599" d="M70 377l34 151h324l88 420h-323l34 152h320l80 375h159l-77 -375h348l80 375h159l-77 -375h311l-33 -152h-311l-86 -420h307l-33 -151h-307l-78 -377h-162l78 377h-348l-78 -377h-162l78 377h-325zM590 528h348l88 420h-350z" />
<glyph unicode="$" horiz-adv-x="1013" d="M113 225v236h92q23 -80 100 -130t168 -50q244 0 244 211q0 34 -9.5 61.5t-38 49.5t-44.5 35t-66.5 30t-62.5 20.5t-72 19.5q-7 2 -10 3q-61 16 -107.5 36t-91 53.5t-68.5 85.5t-24 120q0 253 297 297v172h164v-162q124 -5 282 -41v-234h-82q-38 77 -106.5 114.5 t-153.5 37.5q-99 0 -160 -45t-61 -121q0 -33 13.5 -59.5t35 -45t59 -34.5t73 -27t89.5 -24q54 -14 91.5 -26t86 -37.5t78.5 -57t51 -82.5t21 -115q0 -153 -87 -240t-230 -110v-166h-164v160q-157 9 -307 65z" />
<glyph unicode="%" horiz-adv-x="1550" d="M63 53l1326 1424l77 -86l-1319 -1416zM162 1176q0 138 83 230.5t230 92.5t230 -92.5t83 -230.5t-83 -231t-230 -93t-230 93t-83 231zM287 1176q0 -102 50 -164t138 -62t138.5 62.5t50.5 163.5t-50.5 163t-138.5 62t-138 -62t-50 -163zM801 299q0 138 83 231t230 93 t230 -93t83 -231t-83 -231t-230 -93t-230 93t-83 231zM926 299q0 -101 50 -163t138 -62t138.5 62t50.5 163t-50.5 163t-138.5 62t-138 -62t-50 -163z" />
<glyph unicode="&#x26;" horiz-adv-x="1482" d="M121 399q0 77 33 153.5t110 148t187 106.5q-97 45 -160.5 133.5t-63.5 187.5q0 167 116 269t335 102q102 0 182.5 -15.5t208.5 -56.5v-253h-106q-52 192 -287 192q-73 0 -128.5 -20.5t-86.5 -55t-46.5 -72.5t-15.5 -79q0 -35 11 -72t40 -77t71.5 -71t112.5 -51t157 -20 h569v-133h-322l299 -602h127v-113h-243l-95 199q-272 -224 -548 -224q-127 0 -230 50t-165 148t-62 226zM301 414q0 -149 82 -225t209 -76q119 0 241.5 57.5t221.5 161.5l-199 387h-176q-97 0 -171.5 -25.5t-119 -69t-66.5 -97t-22 -113.5z" />
<glyph unicode="'" horiz-adv-x="440" d="M154 834v538h133v-538h-133z" />
<glyph unicode="(" horiz-adv-x="606" d="M94 571q0 547 305 992h181q-322 -504 -322 -992q0 -487 322 -991h-181q-305 445 -305 991z" />
<glyph unicode=")" horiz-adv-x="606" d="M27 -420q321 503 321 991q0 489 -321 992h180q305 -445 305 -992q0 -546 -305 -991h-180z" />
<glyph unicode="*" horiz-adv-x="944" d="M84 1182l35 104l297 -100v317h112v-319l301 102l31 -100l-307 -99l192 -256l-92 -65l-180 244l-176 -246l-96 70l190 253z" />
<glyph unicode="+" horiz-adv-x="1120" d="M78 508v137h411v410h140v-410h413v-137h-413v-418h-140v418h-411z" />
<glyph unicode="," horiz-adv-x="532" d="M143 0v233h246v-278q0 -24 -6 -46.5t-21.5 -50t-52.5 -44.5t-90 -17h-76v119h56q59 0 59 47v37h-115z" />
<glyph unicode="-" horiz-adv-x="987" d="M143 508v143h701v-143h-701z" />
<glyph unicode="." horiz-adv-x="532" d="M143 0v233h246v-233h-246z" />
<glyph unicode="/" horiz-adv-x="817" d="M74 -420l522 1983h152l-529 -1983h-145z" />
<glyph unicode="0" horiz-adv-x="1380" d="M115 737q0 378 141 570t434 192t434.5 -192t141.5 -570t-141.5 -570t-434.5 -192t-434 192t-141 570zM299 737q0 -333 103 -490t288 -157t288 157t103 490t-103 490t-288 157t-288 -157t-103 -490z" />
<glyph unicode="1" horiz-adv-x="864" d="M92 0v133h242q49 0 49 35v993h-256v131h117q95 1 148.5 46.5t72.5 136.5h92v-1313q3 -26 37 -29h242v-133h-744z" />
<glyph unicode="2" horiz-adv-x="1138" d="M96 0v88q0 103 25 189.5t68 149t98.5 115.5t116.5 93.5t122 78t116.5 75.5t98.5 78t68 93t25 115q0 134 -74 212.5t-209 78.5q-132 0 -209 -36t-113 -138h-94v238q223 69 402 69q481 0 481 -424q0 -77 -25.5 -143t-68.5 -115t-99 -92.5t-117.5 -81t-123 -75.5t-117.5 -82 t-99 -93t-68.5 -115.5t-25.5 -144.5h562l82 184h94v-317h-916z" />
<glyph unicode="3" horiz-adv-x="1150" d="M104 63v211h95q40 -85 118 -125t207 -40q151 0 237.5 87t86.5 216q0 50 -16 95.5t-48 84t-87 61.5t-126 23h-168v143h168q112 0 187.5 86t75.5 195q0 30 -6.5 61t-27 69.5t-53 67t-91 48.5t-134.5 20q-120 0 -191.5 -39.5t-107.5 -134.5h-94v225q104 38 221 60t189 22 q223 0 351 -106t128 -283q0 -116 -70.5 -208t-173.5 -148q118 -44 188 -128t70 -208q0 -111 -42 -196.5t-116 -137.5t-167 -78t-201 -26q-207 0 -402 83z" />
<glyph unicode="4" horiz-adv-x="1189" d="M47 428v143l526 904h185l-531 -914h453v187l70 233h104v-420h283v-133h-283v-266q3 -26 37 -29h162v-133h-576v133h154q49 0 49 35v260h-633z" />
<glyph unicode="5" horiz-adv-x="1161" d="M143 68v219h95q83 -176 327 -176q61 0 113.5 17.5t99.5 56.5t74 112t27 174q0 90 -24 156.5t-66 104t-93.5 55.5t-111.5 18q-85 0 -167 -35t-145 -98h-120v803h858v-138h-684v-483q141 86 292 86q87 0 165 -27.5t141.5 -81.5t101 -144.5t37.5 -205.5q0 -251 -136 -377.5 t-380 -126.5q-191 0 -404 91z" />
<glyph unicode="6" horiz-adv-x="1243" d="M111 707q0 179 45.5 329t125 251t187.5 156.5t231 55.5q235 0 361 -69v-203h-96q-30 64 -89.5 100.5t-168.5 36.5q-90 0 -162.5 -39.5t-117.5 -102t-75.5 -146t-42.5 -166t-12 -167.5q78 50 183 78.5t212 28.5q93 0 173.5 -23t147.5 -70t105.5 -128.5t38.5 -188.5 q0 -88 -29 -168t-87.5 -148t-159 -108.5t-230.5 -40.5q-68 0 -130.5 15.5t-124.5 48.5t-112.5 90.5t-90 136t-61 191.5t-21.5 250zM303 582q0 -85 23.5 -167.5t67.5 -151.5t115.5 -111.5t158.5 -42.5q94 0 165.5 47t105.5 117.5t34 150.5q0 77 -31.5 140.5t-102.5 106 t-171 42.5q-92 0 -191 -29.5t-174 -75.5v-26z" />
<glyph unicode="7" horiz-adv-x="987" d="M72 1171v304h891v-189q-256 -323 -392.5 -628t-197.5 -658h-142l-34 129q32 123 82 256t123.5 287.5t178.5 322t230 324.5h-559l-94 -148h-86z" />
<glyph unicode="8" horiz-adv-x="1218" d="M109 362q0 143 83.5 244.5t233.5 147.5q-137 69 -205.5 154t-68.5 212q0 52 16.5 104t53 102t88.5 88t128 61.5t166 23.5q100 0 182 -23.5t133 -61t85.5 -86t48.5 -95t14 -92.5q0 -122 -77.5 -225t-196.5 -162q166 -68 242.5 -160.5t76.5 -214.5q0 -74 -28.5 -143 t-85 -129t-154 -96t-223.5 -36q-238 0 -375 110t-137 277zM293 375q0 -128 92.5 -197t230.5 -69q144 0 228 72t84 181q0 55 -26.5 102.5t-59 78t-95.5 63t-100 46.5t-108 40q-2 1 -3.5 1.5t-3.5 1t-4 1.5q-94 -34 -164.5 -124t-70.5 -197zM334 1118q0 -28 7 -53.5t16 -46 t29 -41.5t34.5 -35.5t44 -32.5t46.5 -28t54 -26.5t53 -23.5t56 -24q103 45 157 127.5t54 187.5q0 111 -75 177.5t-210 66.5q-121 0 -193.5 -64t-72.5 -184z" />
<glyph unicode="9" horiz-adv-x="1243" d="M86 1034q0 88 29 168t87.5 148t159 108.5t230.5 40.5q82 0 156.5 -21t146 -74t123.5 -134t83.5 -209.5t31.5 -292.5q0 -179 -46 -329.5t-125.5 -251t-187.5 -156.5t-231 -56q-233 0 -361 70v203h97q30 -64 89.5 -100.5t168.5 -36.5q90 0 162.5 39.5t117.5 102t75 146 t42 165.5t12 167q-78 -50 -183 -78t-212 -28q-74 0 -140 13.5t-126 45t-104 78t-69.5 116.5t-25.5 156zM270 1051q0 -77 31.5 -140.5t102.5 -106t171 -42.5q92 0 191 29t174 75v27q0 85 -23.5 167.5t-67.5 151.5t-115.5 111.5t-158.5 42.5q-94 0 -165.5 -47t-105.5 -117.5 t-34 -150.5z" />
<glyph unicode=":" horiz-adv-x="532" d="M143 0v233h246v-233h-246zM143 700v234h246v-234h-246z" />
<glyph unicode=";" horiz-adv-x="532" d="M143 0v233h246v-278q0 -24 -6 -46.5t-21.5 -50t-52.5 -44.5t-90 -17h-76v119h56q59 0 59 47v37h-115zM143 700v234h246v-234h-246z" />
<glyph unicode="&#x3c;" horiz-adv-x="1124" d="M88 455v217l901 358v-158l-772 -292v-33l772 -293v-158z" />
<glyph unicode="=" horiz-adv-x="1263" d="M150 266v140h964v-140h-964zM150 737v137h964v-137h-964z" />
<glyph unicode="&#x3e;" horiz-adv-x="1124" d="M135 96v158l772 293v33l-772 292v158l901 -358v-217z" />
<glyph unicode="?" horiz-adv-x="989" d="M74 1262v217q208 106 413 106q191 0 312 -94t121 -262q0 -61 -22.5 -119t-58 -105t-78.5 -92.5t-86 -89t-78.5 -86t-58 -92t-22.5 -98.5q0 -48 8 -92h-174q-6 43 -6 82q0 65 21 124.5t54.5 105t74.5 88.5t81.5 82.5t74 79t54.5 86.5t21 97q0 122 -69 186t-185 64 q-227 0 -289 -188h-108zM326 0v233h245v-233h-245z" />
<glyph unicode="@" horiz-adv-x="1871" d="M100 512q0 186 62.5 346.5t175 276t277.5 181.5t362 66q189 0 345.5 -53.5t260 -146t160.5 -217t57 -267.5q0 -140 -34 -251t-92.5 -178.5t-132 -102.5t-157.5 -35q-164 0 -243 115q-47 -40 -115.5 -63t-136.5 -23q-105 0 -174.5 55.5t-69.5 167.5q0 101 70.5 164 t214.5 63h192v92q0 65 -42 103.5t-126 38.5q-161 0 -194 -125h-70v176q159 47 268 47q48 0 90.5 -7.5t83.5 -26.5t70 -48.5t46.5 -76t17.5 -105.5v-324q0 -104 129 -104q116 0 190 116.5t74 325.5q0 122 -44.5 224.5t-129 178t-215.5 118t-297 42.5q-86 0 -170.5 -18 t-167.5 -54t-153 -97t-124.5 -140.5t-85 -191t-30.5 -242.5q0 -169 55.5 -300.5t154 -214t229 -125t286.5 -42.5q165 0 327 49l27 -115q-177 -61 -367 -61q-134 0 -257 29t-232.5 93t-190 157t-127.5 229t-47 301zM797 387q0 -57 36 -87t93 -30q49 0 101.5 20t94.5 54v170 h-143q-41 0 -70.5 -5t-56.5 -17.5t-41 -39t-14 -65.5z" />
<glyph unicode="A" horiz-adv-x="1460" d="M18 0v123h109q12 0 23 7t14 17l399 1205h-227l29 123h526l442 -1319q10 -33 49 -33h88v-123h-503v123h161l-129 424h-518l-133 -424h158v-123h-488zM518 690h436l-202 662h-23z" />
<glyph unicode="B" horiz-adv-x="1314" d="M109 0v123h73q66 0 66 63v1102q0 64 -66 64h-73v123h602q107 0 193.5 -30.5t140.5 -83t83 -119.5t29 -142q0 -201 -194 -312v-10q122 -44 182.5 -128t60.5 -220q0 -193 -149.5 -311.5t-386.5 -118.5h-561zM432 143h238q82 0 144.5 17.5t100.5 45.5t62 67.5t32.5 78 t8.5 82.5q0 50 -13.5 94.5t-43.5 84t-86 62.5t-132 23h-311v-555zM432 842h311q52 0 92.5 16.5t64.5 41.5t39.5 59.5t21.5 66.5t6 66q0 46 -15.5 86.5t-47.5 75.5t-89.5 56t-134.5 21h-248v-489z" />
<glyph unicode="C" horiz-adv-x="1327" d="M109 739q0 198 49.5 346t140.5 237.5t211.5 133t271.5 43.5q210 0 443 -65v-265h-107q-31 65 -70.5 104t-108.5 61t-173 22q-76 0 -143 -21t-127 -69t-102.5 -119.5t-67.5 -178t-25 -239.5t25.5 -238t70 -174t108 -114t135 -64.5t155.5 -19.5q64 0 111.5 8t78.5 21 t56.5 39t41 51t35.5 67h107v-264q-236 -66 -443 -66q-120 0 -221 27t-185.5 86t-143 147.5t-91 216t-32.5 287.5z" />
<glyph unicode="D" horiz-adv-x="1523" d="M109 0v123h73q66 0 66 63v1102q0 64 -66 64h-73v123h618q155 0 280 -43.5t216.5 -130.5t141.5 -226t50 -321q0 -363 -187 -558.5t-501 -195.5h-618zM432 141h264q92 0 168 20.5t130 55t95 83.5t66 102t40.5 116t21.5 119.5t6 116.5q0 87 -12 162t-47 154.5t-91 135 t-153 91.5t-224 36h-264v-1192z" />
<glyph unicode="E" horiz-adv-x="1280" d="M109 0v123h73q66 0 66 63v1102q0 64 -66 64h-73v123h1054v-347h-125l-53 203h-553v-491h547v-144h-547v-553h553l53 203h125v-346h-1054z" />
<glyph unicode="F" horiz-adv-x="1234" d="M109 0v123h73q66 0 66 63v1102q0 64 -66 64h-73v123h1054v-347h-125l-53 203h-553v-549h547v-143h-547v-516h141v-123h-464z" />
<glyph unicode="G" horiz-adv-x="1466" d="M106 739q0 197 56.5 346t156.5 238t227 132.5t279 43.5q232 0 465 -65v-265h-106q-46 96 -133 141.5t-242 45.5q-84 0 -157 -20t-139 -66.5t-112.5 -117.5t-74 -179t-27.5 -244q0 -133 28 -238t76 -173.5t115 -114t141 -65t158 -19.5q194 0 336 61v410h-373v143h557v-651 q-120 -52 -270.5 -79.5t-261.5 -27.5q-151 0 -275.5 44t-220.5 133.5t-149.5 239t-53.5 347.5z" />
<glyph unicode="H" horiz-adv-x="1615" d="M109 0v123h73q66 0 66 63v1102q0 64 -66 64h-73v123h462v-123h-139v-512h752v512h-140v123h463v-123h-73q-66 0 -66 -64v-1102q0 -63 66 -63h73v-123h-463v123h140v573h-752v-573h139v-123h-462z" />
<glyph unicode="I" horiz-adv-x="679" d="M109 0v123h73q66 0 66 63v1102q0 64 -66 64h-73v123h462v-123h-73q-62 0 -66 -54v-1122q3 -53 66 -53h73v-123h-462z" />
<glyph unicode="J" horiz-adv-x="952" d="M47 43v217h109q42 -89 98.5 -131.5t116.5 -42.5q72 0 119 46.5t47 135.5v1020q0 64 -66 64h-74v123h463v-123h-74q-61 0 -65 -54v-983q0 -340 -371 -340q-148 0 -303 68z" />
<glyph unicode="K" horiz-adv-x="1363" d="M109 0v123h73q66 0 66 63v1102q0 64 -66 64h-73v123h462v-123h-139v-539h164l383 539h-162v123h483v-123h-139l-418 -584l222 -352q83 -133 174 -202t204 -73v-149q-41 -6 -73 -6q-72 0 -135.5 22t-108.5 53t-92.5 86t-77 99.5t-72.5 115.5l-194 322h-158v-561h139v-123 h-462z" />
<glyph unicode="L" horiz-adv-x="1173" d="M109 0v123h73q66 0 66 63v1102q0 64 -66 64h-73v123h462v-123h-139v-1209h526l54 203h125v-346h-1028z" />
<glyph unicode="M" horiz-adv-x="2019" d="M109 0v123h73q66 0 66 63v1102q0 64 -66 64h-73v123h417l490 -1287l500 1287h395v-123h-74q-65 0 -65 -64v-1102q0 -63 65 -63h74v-123h-463v123h139v1108l-481 -1231h-213l-471 1227v-1104h139v-123h-452z" />
<glyph unicode="N" horiz-adv-x="1619" d="M109 0v123h73q66 0 66 63v1102q0 64 -66 64h-73v123h348l753 -1205v1082h-139v123h451v-123h-74q-66 0 -66 -64v-1288h-215l-745 1182v-1059h139v-123h-452z" />
<glyph unicode="O" d="M106 737q0 183 48.5 328.5t137 240t211 144t271.5 49.5t271.5 -49.5t211 -144t137 -240t48.5 -328.5t-48.5 -328.5t-137 -240t-211 -144t-271.5 -49.5t-271.5 49.5t-211 144t-137 240t-48.5 328.5zM299 737q0 -134 25.5 -240.5t69.5 -176.5t105 -116t129 -65.5t146 -19.5 t146 19.5t129 65.5t105 116t69.5 176.5t25.5 240.5q0 167 -38.5 290.5t-106 194t-150 103.5t-180.5 33t-180.5 -33t-150 -103.5t-106 -194t-38.5 -290.5z" />
<glyph unicode="P" horiz-adv-x="1288" d="M109 0v123h73q66 0 66 63v1102q0 64 -66 64h-73v123h661q92 0 168.5 -27.5t127 -72t85.5 -103t50.5 -119t15.5 -121.5q0 -92 -30.5 -174.5t-88 -148.5t-150 -105t-207.5 -39h-309v-442h139v-123h-462zM432 709h270q91 0 156.5 26t100.5 72.5t50 99.5t15 117 q0 63 -18 116.5t-55.5 97t-102 68.5t-150.5 25h-266v-622z" />
<glyph unicode="Q" d="M106 737q0 183 48.5 328.5t137 240t211 144t271.5 49.5t271.5 -49.5t211 -144t137 -240t48.5 -328.5q0 -294 -121.5 -482t-333.5 -251q90 -106 155.5 -155t145.5 -66v-72h-264q-114 120 -207 266q-14 -2 -43 -2q-149 0 -271.5 49.5t-211 144t-137 240t-48.5 328.5z M299 737q0 -134 25.5 -240.5t69.5 -176.5t105 -116t129 -65.5t146 -19.5t146 19.5t129 65.5t105 116t69.5 176.5t25.5 240.5q0 167 -38.5 290.5t-106 194t-150 103.5t-180.5 33t-180.5 -33t-150 -103.5t-106 -194t-38.5 -290.5z" />
<glyph unicode="R" horiz-adv-x="1394" d="M109 0v123h73q66 0 66 63v1102q0 64 -66 64h-73v123h614q496 0 496 -416q0 -137 -78 -227t-213 -132q65 -11 113.5 -38.5t73.5 -59t40.5 -72t19 -68.5t3.5 -56v-146q0 -37 4.5 -58t20 -40t48 -28t86.5 -13v-121q-53 -6 -98 -6q-119 0 -182.5 60t-63.5 210v172 q0 81 -76.5 138t-205.5 57h-279v-508h139v-123h-462zM432 774h313q281 0 281 277q0 44 -5.5 79.5t-23.5 74.5t-47.5 65t-82 43.5t-122.5 17.5h-313v-557z" />
<glyph unicode="S" horiz-adv-x="1224" d="M115 76v325h123q12 -68 37 -118.5t58.5 -81.5t79.5 -49.5t94 -25.5t109 -7q135 0 227.5 83.5t92.5 196.5q0 62 -27.5 109.5t-74 78t-106.5 54.5t-126.5 44t-133.5 41.5t-127 53t-106.5 72t-74 104.5t-27.5 146q0 103 40 181t110 124t158 69t192 23q100 0 222 -22.5 t226 -59.5v-278h-125q-4 61 -34.5 106.5t-80.5 71t-107.5 37.5t-123.5 12q-134 0 -210 -68t-76 -178q0 -57 27.5 -100t73.5 -71t106 -50t126 -42t132 -42.5t126 -55t106 -75.5t73.5 -109.5t27.5 -150.5q0 -207 -146 -328t-376 -121q-102 0 -231 26.5t-254 74.5z" />
<glyph unicode="T" horiz-adv-x="1386" d="M53 1059v416h1280v-416h-125l-53 272h-369v-1155q3 -53 66 -53h74v-123h-463v123h74q65 0 65 63v1145h-371l-53 -272h-125z" />
<glyph unicode="U" horiz-adv-x="1499" d="M92 1352v123h430v-123h-127v-877q0 -356 361 -356q51 0 96.5 7.5t97 30.5t88.5 60t61.5 102.5t24.5 151.5v881h-118v123h403v-123h-61q-58 0 -58 -56v-802q0 -256 -135 -387.5t-407 -131.5q-283 0 -410 130.5t-127 388.5v802q0 56 -57 56h-62z" />
<glyph unicode="V" horiz-adv-x="1449" d="M2 1352v123h504v-123h-164l385 -1227h21l374 1227h-155v123h487v-123h-92q-55 0 -70 -45l-432 -1311h-268l-440 1311q-15 45 -70 45h-80z" />
<glyph unicode="W" horiz-adv-x="2091" d="M14 1352v123h471v-123h-145l287 -1186h10l303 1309h242l284 -1309h9l284 1186h-174v123h494v-123h-82q-60 0 -72 -45l-323 -1311h-287l-264 1284l-295 -1284h-264l-330 1311q-12 45 -70 45h-78z" />
<glyph unicode="X" horiz-adv-x="1466" d="M20 0v123h121l486 629l-461 600h-117v123h475v-123h-141l369 -488l329 436q11 17 2 34.5t-30 17.5h-131v123h495v-123h-108l-461 -596l475 -633h123v-123h-485v123h145l-385 508l-346 -455q-11 -17 -2.5 -35t30.5 -18h146v-123h-529z" />
<glyph unicode="Y" horiz-adv-x="1427" d="M-10 1352v123h504v-123h-158l389 -641l385 641h-156v123h488v-123h-105q-28 0 -42 -11t-29 -34l-459 -738v-393q0 -53 65 -53h74v-123h-463v123h74q66 0 66 63v383l-465 738q-10 15 -17 23.5t-21.5 15t-33.5 6.5h-96z" />
<glyph unicode="Z" horiz-adv-x="1290" d="M84 0v154l872 1177h-546q-88 0 -132 -53t-53 -174h-110v371h1052v-152l-866 -1180h633q144 0 168 222h102v-365h-1120z" />
<glyph unicode="[" horiz-adv-x="694" d="M193 -420v1983h446v-144h-283v-1695h283v-144h-446z" />
<glyph unicode="\" horiz-adv-x="817" d="M70 1563h151l522 -1983h-145z" />
<glyph unicode="]" horiz-adv-x="694" d="M55 -276h283v1695h-283v144h447v-1983h-447v144z" />
<glyph unicode="^" horiz-adv-x="1286" d="M240 723l301 649h207l325 -649h-168l-260 571l-237 -571h-168z" />
<glyph unicode="_" horiz-adv-x="1253" d="M139 -14v120h975v-120h-975z" />
<glyph unicode="`" horiz-adv-x="1024" d="M272 1616h207l213 -340v-16h-174z" />
<glyph unicode="a" horiz-adv-x="1136" d="M82 303q0 144 112 237t322 93h258v145q0 96 -62.5 161t-183.5 65q-26 0 -46.5 -1.5t-52.5 -6.5t-57.5 -17.5t-52.5 -31t-46.5 -50.5t-30.5 -74h-90v242q227 65 380 65q70 0 129.5 -11.5t114 -39t92 -71t60 -111t22.5 -154.5v-546q0 -39 21 -61.5t63 -22.5h60v-109 q-59 -16 -121 -16q-168 0 -187 125q-80 -62 -181.5 -94.5t-188.5 -32.5q-64 0 -122.5 20t-106.5 57.5t-76.5 99.5t-28.5 140zM264 309q0 -96 57 -140t150 -44q77 0 161 31.5t142 76.5v277h-239q-271 0 -271 -201z" />
<glyph unicode="b" horiz-adv-x="1253" d="M20 1450v113h322v-572q208 139 395 139q68 0 128.5 -18.5t114 -61t92 -105.5t61 -157.5t22.5 -212.5q0 -160 -42 -278.5t-117.5 -187.5t-170.5 -101.5t-211 -32.5q-73 0 -196 14.5t-252 45.5v1368q0 31 -13.5 39t-41.5 8h-91zM342 152q135 -43 250 -43q109 0 185 33 t118 96.5t60 143.5t18 187q0 214 -76.5 318t-206.5 104q-155 0 -348 -135v-704z" />
<glyph unicode="c" horiz-adv-x="1093" d="M96 553q0 131 33 234t86 166t126.5 104t147.5 57t156 16q93 0 187 -21.5t163 -55.5v-219h-102q-31 72 -94 117.5t-160 45.5q-173 0 -265.5 -116.5t-92.5 -327.5q0 -202 92 -323t272 -121q176 0 254 165h96v-221q-156 -78 -350 -78q-82 0 -156 15.5t-147.5 56.5 t-126.5 104.5t-86 166.5t-33 235z" />
<glyph unicode="d" horiz-adv-x="1300" d="M98 528q0 134 28.5 238t77.5 171.5t119.5 111.5t149.5 62.5t172 18.5q103 0 275 -36v307q0 22 -8.5 33.5t-18.5 13.5t-29 2h-108v113h338v-1366q0 -39 21 -61.5t63 -22.5h59v-109q-59 -16 -121 -16q-154 0 -186 125q-219 -138 -408 -138q-86 0 -160 30.5t-134.5 94 t-95 173t-34.5 255.5zM283 535q0 -216 72 -321t200 -105q183 0 363 139v706q-135 43 -250 43q-109 0 -185.5 -33.5t-119.5 -97.5t-61.5 -144t-18.5 -187z" />
<glyph unicode="e" horiz-adv-x="1167" d="M98 557q0 276 133.5 424.5t374.5 148.5q113 0 197.5 -31t134 -80.5t80 -122.5t41 -145.5t10.5 -160.5v-84h-782q0 -397 346 -397q45 0 80.5 3.5t79.5 16.5t76.5 35t61 63t42.5 97h67v-240q-77 -46 -199 -77.5t-208 -31.5q-267 0 -401 140.5t-134 441.5zM285 633h608 q0 56 -5.5 102t-24 97t-49.5 85.5t-85.5 57t-128.5 22.5q-159 0 -237 -99t-78 -265z" />
<glyph unicode="f" horiz-adv-x="745" d="M74 975v100l157 27v143q0 162 89 252t241 90q71 0 152 -17t143 -48v-199h-111q-62 137 -192 137q-145 0 -145 -190v-168h309v-133h-309v-807q0 -22 8 -33.5t18 -13.5t29 -2h90v-113h-465v113h88q19 0 29 2t18 13.5t8 33.5v756q0 26 -16 41.5t-41 15.5h-100z" />
<glyph unicode="g" horiz-adv-x="1157" d="M78 -188q0 77 51 142t164 93q-111 49 -111 152q0 51 27.5 107.5t73.5 105.5q-83 43 -130 128t-47 197q0 187 121 290t328 103q51 0 149 -14t134 -14q28 0 42 0.5t34 5.5t29 14.5t16.5 28.5t7.5 47h149q0 -66 -15.5 -110.5t-44.5 -66.5t-60 -30t-72 -8q-6 0 -18 1t-17 1 q117 -86 117 -252q0 -185 -121 -286t-322 -101q-34 0 -89.5 9t-90.5 20q-47 -66 -47 -127q0 -76 96 -76h320q68 0 127.5 -16t108 -47.5t76.5 -84.5t28 -122q0 -179 -132 -262.5t-391 -83.5q-257 0 -374 63t-117 193zM258 -150q0 -82 70 -127t241 -45q175 0 262 47t87 152 q0 143 -201 143h-279q-75 0 -127.5 -49.5t-52.5 -120.5zM289 737q0 -127 62.5 -195.5t205.5 -68.5q142 0 204 68t62 196q0 267 -266 267q-268 0 -268 -267z" />
<glyph unicode="h" horiz-adv-x="1318" d="M61 1450v113h322v-586q95 65 211 107t211 42q65 0 120.5 -18t100 -55t69.5 -100.5t25 -147.5v-643q0 -22 8.5 -33.5t18.5 -13.5t29 -2h90v-113h-465v113h143v643q0 114 -54.5 162.5t-166.5 48.5q-75 0 -170.5 -32t-169.5 -79v-743h145v-113h-465v113h89q19 0 29 2 t18 13.5t8 33.5v1239q0 22 -8 33.5t-18 13.5t-29 2h-91z" />
<glyph unicode="i" horiz-adv-x="585" d="M55 989v113h322v-866q0 -65 20 -96t72 -31q41 0 51 2v-117q-55 -10 -102 -10q-217 0 -217 206v750q0 22 -8.5 33.5t-18.5 13.5t-29 2h-90zM193 1368v195h188v-195h-188z" />
<glyph unicode="j" horiz-adv-x="559" d="M63 -358q42 32 69.5 65t43 61.5t23 71t9 75.5t1.5 93v932q0 22 -8 33.5t-18 13.5t-29 2h-91v113h322v-1120q0 -163 -64 -266.5t-194 -161.5zM203 1368v195h188v-195h-188z" />
<glyph unicode="k" horiz-adv-x="1163" d="M61 1450v113h322v-910h145l246 336l-168 31v82h457v-113h-123l-295 -399l156 -240q83 -127 167.5 -180t178.5 -53v-117q-56 -16 -100 -16q-114 0 -214.5 73t-177.5 195l-194 303h-78v-442h145v-113h-465v113h89q19 0 29 2t18 13.5t8 33.5v1239q0 22 -8 33.5t-18 13.5 t-29 2h-91z" />
<glyph unicode="l" horiz-adv-x="600" d="M66 1450v113h321v-1401q0 -22 8 -33.5t18 -13.5t29 -2h90v-113h-464v113h88q19 0 29 2t18 13.5t8 33.5v1239q0 22 -8 33.5t-18 13.5t-29 2h-90z" />
<glyph unicode="m" horiz-adv-x="2007" d="M80 989v113h323v-125q206 151 377 151q100 0 179.5 -42t117.5 -128q121 85 219 127.5t189 42.5q52 0 98.5 -11t88.5 -35.5t72 -61t48 -91t18 -122.5v-645q0 -22 8.5 -33.5t18.5 -13.5t29 -2h90v-113h-465v113h143v645q0 116 -52.5 167.5t-168.5 51.5q-120 0 -307 -119 v-745h145v-113h-465v113h144v645q0 117 -51.5 168t-169.5 51t-308 -121v-743h146v-113h-465v113h88q19 0 29 2t18 13.5t8 33.5v778q0 22 -8 33.5t-18 13.5t-29 2h-90z" />
<glyph unicode="n" horiz-adv-x="1337" d="M80 989v113h323v-125q221 151 420 151q65 0 120.5 -18t100 -55t70 -100.5t25.5 -147.5v-645q0 -22 8 -33.5t18 -13.5t29 -2h90v-113h-465v113h144v645q0 115 -55.5 167t-166.5 52q-72 0 -167 -35.5t-173 -85.5v-743h146v-113h-465v113h88q19 0 29 2t18 13.5t8 33.5v778 q0 22 -8 33.5t-18 13.5t-29 2h-90z" />
<glyph unicode="o" horiz-adv-x="1277" d="M96 553q0 125 30 224.5t80.5 164.5t121 108t147.5 61.5t164 18.5t164 -18.5t147.5 -62t121 -108.5t80.5 -164t30 -224q0 -155 -45 -270t-123 -180.5t-171.5 -96.5t-203.5 -31q-87 0 -164 18t-147.5 61t-121 108.5t-80.5 165t-30 225.5zM281 553q0 -210 87 -328.5 t271 -118.5q186 0 274 118.5t88 328.5t-88 328t-274 118q-184 0 -271 -118t-87 -328z" />
<glyph unicode="p" horiz-adv-x="1298" d="M63 989v113h322v-111q209 139 397 139q68 0 128.5 -18.5t114 -61t92 -105.5t61 -157.5t22.5 -212.5q0 -134 -28 -237.5t-76 -171t-117.5 -111.5t-148 -62t-171.5 -18q-97 0 -274 37v-319h145v-113h-464v113h88q19 0 29 2t18 13.5t8 33.5v1200q0 31 -13.5 39t-41.5 8h-91z M385 152q135 -43 252 -43q109 0 185 33t118 96.5t60 143.5t18 187q0 214 -76.5 318t-206.5 104q-157 0 -350 -135v-704z" />
<glyph unicode="q" horiz-adv-x="1267" d="M98 532q0 133 31 237t83 171t126 110.5t155 61.5t175 18q222 0 432 -57v-1311q0 -31 14 -48t53 -17h78v-117h-469v113h148v426q-115 -72 -211.5 -108t-196.5 -36q-84 0 -156.5 31.5t-132.5 95.5t-94.5 174.5t-34.5 255.5zM281 541q0 -215 78.5 -321.5t211.5 -106.5 q163 0 353 145v705q-131 41 -240 41q-188 0 -295.5 -118.5t-107.5 -344.5z" />
<glyph unicode="r" horiz-adv-x="819" d="M80 989v113h315v-215q56 57 116.5 102.5t106.5 70.5t84 41.5t58 21.5l20 5v-219q-112 -20 -207 -48t-133 -46l-39 -18v-684h146v-113h-465v113h88q19 0 29 2t18 13.5t8 33.5v778q0 22 -8 33.5t-18 13.5t-29 2h-90z" />
<glyph unicode="s" horiz-adv-x="987" d="M104 43v236h93q23 -80 100 -130.5t168 -50.5q244 0 244 201q0 43 -18 77.5t-44 57t-67.5 41t-77 29.5t-84.5 25q-2 0 -3.5 0.5t-4 1t-4.5 1.5q-50 14 -86.5 27.5t-77.5 37.5t-67 53t-43 73.5t-17 99.5q0 307 428 307q145 0 315 -40v-234h-82q-38 77 -106.5 114.5 t-153.5 37.5q-99 0 -160 -45t-61 -121q0 -24 8 -44t18 -35t33.5 -30t39 -23.5t52.5 -21t55 -18t64 -19.5q45 -13 65 -19.5t62.5 -23t64 -30.5t52 -39t46 -52.5t27 -67t11.5 -85.5q0 -93 -34 -163.5t-93 -112.5t-133.5 -62.5t-161.5 -20.5q-186 0 -367 68z" />
<glyph unicode="t" horiz-adv-x="774" d="M61 969v92q93 30 139.5 106t69.5 199h101v-264h366v-133h-366v-682q0 -168 170 -168q69 0 178 31v-140q-113 -35 -234 -35q-61 0 -111 15.5t-91 48.5t-63.5 90.5t-22.5 136.5v703h-136z" />
<glyph unicode="u" horiz-adv-x="1318" d="M51 989v113h322v-756q0 -124 53 -171.5t168 -47.5q73 0 168 35t172 84v694q0 22 -8 33.5t-18 13.5t-29 2h-117v113h348v-881q0 -58 24.5 -83t75.5 -25h43v-111q-66 -16 -125 -16q-36 0 -61.5 4.5t-53.5 18.5t-45.5 44.5t-23.5 77.5q-97 -66 -217 -111t-215 -45 q-65 0 -120.5 18t-100 55t-69.5 101t-25 148v643q0 22 -8.5 33.5t-18.5 13.5t-29 2h-90z" />
<glyph unicode="v" horiz-adv-x="1173" d="M16 989v113h461v-113h-180l297 -751h20l279 751h-160v113h414v-113h-57q-29 0 -39 -24l-385 -967h-150l-401 967q-12 24 -45 24h-54z" />
<glyph unicode="w" horiz-adv-x="1867" d="M55 989v113h322v-744q0 -125 51 -183t139 -58q137 0 297 119q-12 35 -12 90v663h-178v113h352v-766q0 -106 72.5 -165.5t171.5 -59.5q94 0 163.5 57.5t69.5 157.5v663h-145v113h467v-113h-90q-19 0 -29 -2t-18.5 -13.5t-8.5 -33.5v-600q0 -89 -36.5 -160.5t-97.5 -115 t-135.5 -66.5t-154.5 -23q-106 0 -200.5 41.5t-147.5 116.5q-194 -156 -399 -156q-64 0 -117.5 16.5t-97 51t-68 93t-24.5 136.5v666q0 22 -8.5 33.5t-18.5 13.5t-29 2h-90z" />
<glyph unicode="x" horiz-adv-x="1189" d="M41 0v113h119l334 444l-314 432h-114v113h432v-113h-101l228 -323l211 295q4 4 4 12q0 16 -25 16h-106v113h417v-113h-104l-309 -430l323 -446h105v-113h-432v113h116l-241 333l-224 -305q-6 -6 -6 -14q0 -14 27 -14h94v-113h-434z" />
<glyph unicode="y" horiz-adv-x="1181" d="M20 989v113h463v-113h-184l307 -833l301 833h-168v113h414v-113h-57q-29 0 -39 -24l-361 -963l-133 -422h-239v43l260 365v10h-90l-375 967q-12 24 -45 24h-54z" />
<glyph unicode="z" horiz-adv-x="1060" d="M94 811v291h860v-127l-635 -846h326q59 0 97 10t61.5 35t36 53.5t26.5 81.5h101v-309h-865v125l635 848h-350q-94 0 -134.5 -41t-57.5 -121h-101z" />
<glyph unicode="{" horiz-adv-x="708" d="M74 516v105h45q54 0 78 40.5t24 100.5q0 57 -37 215.5t-37 249.5q0 95 34.5 174t110.5 131.5t183 52.5q60 0 170 -29l-8 -170l-41 -6q-50 109 -133 109q-139 0 -139 -264q0 -78 35.5 -227t35.5 -216q0 -85 -41 -138t-141 -69v-10q100 -16 141 -69t41 -138 q0 -64 -35.5 -217.5t-35.5 -242.5q0 -115 42 -180.5t99 -65.5q37 0 68 27t49 81l55 -6l8 -170q-106 -28 -170 -28q-90 0 -156 29.5t-102.5 82t-53 113.5t-16.5 133q0 91 37 249.5t37 215.5q0 60 -24 98.5t-78 38.5h-45z" />
<glyph unicode="|" horiz-adv-x="544" d="M190 -535v2098h164v-2098h-164z" />
<glyph unicode="}" horiz-adv-x="708" d="M63 -416l9 170l41 6q50 -108 133 -108q139 0 139 264q0 78 -36 226.5t-36 215.5q0 85 41.5 138t141.5 69v10q-100 16 -141.5 69t-41.5 138q0 64 36 218t36 243q0 114 -42.5 180t-100.5 66q-35 0 -66 -27.5t-49 -81.5l-55 6l-9 170q110 29 170 29q90 0 156 -29.5 t102.5 -82t53 -113.5t16.5 -133q0 -91 -37 -249.5t-37 -215.5q0 -59 24.5 -98t78.5 -39h45v-105h-45q-54 0 -78.5 -40.5t-24.5 -100.5q0 -57 37 -215.5t37 -249.5q0 -95 -34.5 -174t-110.5 -131.5t-183 -52.5q-64 0 -170 28z" />
<glyph unicode="~" horiz-adv-x="1234" d="M145 641q131 64 269 64q93 0 254.5 -38t236.5 -38q92 0 170 37l17 -146q-108 -51 -222 -51q-87 0 -248.5 39t-242.5 39q-119 0 -223 -60z" />
<glyph unicode="&#xa1;" horiz-adv-x="579" d="M166 829v234h246v-234h-246zM193 285l51 321h94l49 -321v-697h-194v697z" />
<glyph unicode="&#xa2;" horiz-adv-x="1128" d="M102 739q0 112 24 203.5t64.5 153t97 107t117 69.5t130.5 35v168h163v-160q161 -9 303 -76v-219h-102q-31 72 -94 118t-160 46q-173 0 -265.5 -117t-92.5 -328q0 -202 92 -323t272 -121q176 0 254 166h96v-221q-133 -67 -303 -76v-164h-163v172q-70 10 -130.5 34 t-117 68.5t-97 106t-64.5 153.5t-24 205z" />
<glyph unicode="&#xa3;" horiz-adv-x="1064" d="M68 0l18 111q118 0 169.5 59.5t51.5 183.5v379h-190v131h194v191q0 499 592 536l17 -129q-59 -5 -109 -14.5t-101.5 -27t-91.5 -45t-71.5 -65t-48.5 -91t-17 -119.5v-236h410v-131h-408v-395q0 -78 -14.5 -124t-56.5 -81h557v-133h-901z" />
<glyph unicode="&#xa4;" horiz-adv-x="1079" d="M121 211l149 151q-39 73 -39 154q0 92 41 160l-141 151l102 99l150 -144q85 47 160 47q72 0 149 -43l154 148l106 -109l-141 -143q45 -82 45 -166q0 -91 -45 -166l143 -143l-102 -103l-150 146q-78 -45 -159 -45q-77 0 -162 47l-154 -154zM383 516q0 -80 44 -126t116 -46 q73 0 117.5 46t44.5 126q0 82 -44.5 128t-117.5 46q-72 0 -116 -46t-44 -128z" />
<glyph unicode="&#xa5;" horiz-adv-x="1576" d="M63 1352v123h504v-123h-157l389 -641l385 641h-156v123h488v-123h-103q-21 0 -36 -7t-21.5 -14.5t-16.5 -23.5l-317 -512h244v-138h-330l-55 -88v-163h385v-140h-385v-90q3 -53 65 -53h74v-123h-463v123h74q65 0 65 63v80h-395v140h395v163l-55 88h-340v138h252l-322 512 q-10 16 -17 23.5t-21 14.5t-33 7h-97z" />
<glyph unicode="&#xa6;" horiz-adv-x="557" d="M197 444h163v-979h-163v979zM197 608v955h163v-955h-163z" />
<glyph unicode="&#xa7;" horiz-adv-x="1052" d="M121 -70v236h92q23 -80 100 -130t168 -50q244 0 244 211q0 29 -8 53.5t-18.5 42t-31.5 33t-37 25t-45.5 19.5t-46 14.5t-49 13.5t-45.5 12q-57 15 -98 30.5t-84 42t-70 60.5t-44 85.5t-17 116.5q0 85 48.5 153.5t125.5 111.5q-153 78 -153 243q0 308 428 308 q140 0 315 -41v-234h-82q-38 77 -106.5 114.5t-153.5 37.5q-99 0 -160 -45t-61 -121q0 -20 3.5 -36.5t14 -31t18 -24.5t27.5 -21t31 -17t39 -15.5t41 -13.5t47.5 -14t48.5 -14q136 -40 195 -75q147 -85 147 -260q0 -186 -151 -297q116 -77 116 -232q0 -93 -34 -163.5 t-93.5 -112t-133.5 -62t-161 -20.5q-187 0 -366 67zM311 752q0 -35 7.5 -61t32.5 -48.5t42.5 -36t69 -31.5t78.5 -26t102 -29q9 -3 14 -4q55 55 79 105.5t24 109.5q0 24 -6.5 45t-14.5 37t-25.5 32t-30.5 26.5t-39 22.5t-40.5 18t-46 16t-44.5 13.5t-46 12.5 q-71 -31 -113.5 -83.5t-42.5 -118.5z" />
<glyph unicode="&#xa8;" horiz-adv-x="1705" d="M575 1329v203h230v-203h-230zM1010 1329v203h229v-203h-229z" />
<glyph unicode="&#xa9;" horiz-adv-x="1974" d="M100 748q0 153 45 284.5t126.5 227.5t192 164.5t243.5 102.5t280 34t280 -34t243.5 -102.5t192 -164.5t126.5 -227.5t45 -284.5q0 -202 -69.5 -360t-191.5 -256t-280.5 -148t-345.5 -50q-149 0 -280.5 30.5t-243 96t-192 160t-126 229.5t-45.5 298zM207 748 q0 -179 61 -318.5t168.5 -225.5t247 -129.5t303.5 -43.5q131 0 246.5 27t214 84.5t169 141t110.5 202.5t40 262q0 168 -61.5 305t-167.5 226t-247.5 137t-303.5 48t-303.5 -48t-247.5 -137t-167.5 -226t-61.5 -305zM567 743q0 248 116 367t316 119q132 0 281 -41v-176h-66 q-31 64 -80 92.5t-147 28.5q-130 0 -213.5 -96.5t-83.5 -299.5q0 -106 24.5 -183.5t69.5 -120.5t99.5 -63t122.5 -20q67 0 107.5 15t59.5 37.5t41 68.5h66v-176q-149 -41 -281 -41q-200 0 -316 119.5t-116 369.5z" />
<glyph unicode="&#xaa;" horiz-adv-x="872" d="M109 961q0 94 72.5 154.5t209.5 60.5h168v94q0 63 -40.5 104t-119.5 41q-29 0 -49 -2.5t-51.5 -12.5t-53.5 -36t-32 -66h-59v158q159 43 247 43q58 0 104.5 -12.5t86 -40t61 -78t21.5 -121.5v-356q0 -53 53 -53h39v-72q-42 -10 -78 -10q-109 0 -121 82 q-53 -41 -119 -62.5t-122 -21.5q-89 0 -153 54.5t-64 152.5zM227 965q0 -62 37 -90.5t96 -28.5q51 0 106 20.5t93 48.5v181h-156q-176 0 -176 -131z" />
<glyph unicode="&#xab;" horiz-adv-x="1265" d="M80 561l448 576l125 -101l-370 -475l370 -475l-125 -100zM604 561l449 576l125 -101l-371 -475l371 -475l-125 -100z" />
<glyph unicode="&#xac;" horiz-adv-x="1269" d="M150 508v137h964v-522l-139 16v369h-825z" />
<glyph unicode="&#xad;" horiz-adv-x="987" d="M143 508v143h701v-143h-701z" />
<glyph unicode="&#xae;" horiz-adv-x="1101" d="M106 1182q0 126 60.5 219.5t160 139.5t224.5 46t224.5 -46t159.5 -139.5t60 -219.5t-60 -219.5t-159.5 -140t-224.5 -46.5t-224.5 46.5t-160 140t-60.5 219.5zM203 1182q0 -152 97.5 -237t250.5 -85t250.5 85t97.5 237t-97.5 236.5t-250.5 84.5t-250.5 -84.5 t-97.5 -236.5zM377 993v45h18q17 0 17 17v248q0 16 -17 16h-18v51h211q127 0 127 -108q0 -72 -74 -91q26 -4 41.5 -19.5t19 -28.5t3.5 -27v-15q0 -13 2 -19t10.5 -10t27.5 -5v-54q-10 -2 -32 -2q-90 0 -90 68v35q0 49 -74 49h-55v-105h36v-45h-153zM494 1198h59q74 0 74 62 q0 28 -15 41.5t-59 13.5h-59v-117z" />
<glyph unicode="&#xaf;" horiz-adv-x="1230" d="M205 1303v129h821v-129h-821z" />
<glyph unicode="&#xb0;" horiz-adv-x="745" d="M102 1229q0 120 76.5 195t194.5 75t194 -75t76 -195q0 -121 -76 -196t-194 -75t-194.5 75.5t-76.5 195.5zM217 1229q0 -75 44 -122.5t112 -47.5t111.5 47.5t43.5 122.5t-43.5 122.5t-111.5 47.5t-112 -47.5t-44 -122.5z" />
<glyph unicode="&#xb1;" horiz-adv-x="1241" d="M129 670v137h422v332h139v-332h404v-137h-404v-340h-139v340h-422zM147 94v139h965v-139h-965z" />
<glyph unicode="&#xb2;" horiz-adv-x="864" d="M129 598v74q0 68 24 126.5t62 99t84 76.5t92 66t84 59.5t62 65.5t24 76q0 67 -43.5 104t-116.5 37q-75 0 -115.5 -33t-62.5 -98h-63v197q114 43 243 43q62 0 114 -13t96.5 -40.5t70 -78t25.5 -118.5q0 -60 -32.5 -114t-81 -92t-105 -78t-105 -74t-81 -79t-32.5 -93h318 l53 88h86v-201h-600z" />
<glyph unicode="&#xb3;" horiz-adv-x="866" d="M135 623v188h76q10 -26 22.5 -44t35.5 -37t62 -28.5t93 -9.5q81 0 128.5 40.5t47.5 107.5q0 149 -229 149h-58v98h111q88 0 126 47t38 109q0 71 -52 107t-122 36q-84 0 -130 -28t-71 -92h-63v180q77 28 134.5 40.5t135.5 12.5q88 0 156 -23t113.5 -81.5t45.5 -147.5 q0 -121 -127 -203q64 -25 103 -77.5t39 -120.5q0 -70 -28.5 -122.5t-78 -82.5t-109 -44.5t-128.5 -14.5q-136 0 -271 41z" />
<glyph unicode="&#xb4;" horiz-adv-x="868" d="M246 1260v16l213 340h207l-246 -356h-174z" />
<glyph unicode="&#xb5;" horiz-adv-x="1349" d="M82 989v113h321v-756q0 -114 54.5 -162.5t167.5 -48.5q75 0 170.5 32t169.5 79v694q0 22 -8.5 33.5t-18.5 13.5t-29 2h-116v113h348v-905q0 -39 21 -61.5t63 -22.5h59v-109q-59 -16 -121 -16q-29 0 -50 2t-46 10.5t-42 23.5t-31 42t-19 65q-228 -156 -412 -156 q-87 0 -160 45v-440h-176v1360q0 22 -8 33.5t-18 13.5t-29 2h-90z" />
<glyph unicode="&#xb6;" horiz-adv-x="1161" d="M68 1028q0 164 105 254t278 90h202v-696h-213q-165 0 -268.5 94t-103.5 258zM291 -70h108q42 -89 98.5 -131.5t116.5 -42.5q72 0 119 47t47 136v1433h185v-1386q0 -340 -371 -340q-150 0 -303 67v217z" />
<glyph unicode="&#xb7;" horiz-adv-x="731" d="M143 348v397h445v-397h-445z" />
<glyph unicode="&#xb8;" horiz-adv-x="956" d="M260 -410q95 -10 154 -10q75 0 117 27.5t42 79.5q0 47 -44 75.5t-128 28.5q-15 0 -65 -4l-33 68l107 145h170l-105 -129h21q110 0 172.5 -47.5t62.5 -142.5q0 -61 -31 -105t-83.5 -67t-110.5 -33.5t-125 -10.5q-38 0 -121 9v116z" />
<glyph unicode="&#xb9;" horiz-adv-x="751" d="M121 598v111h196v565h-161v82q209 0 233 131h72v-778h203v-111h-543z" />
<glyph unicode="&#xba;" horiz-adv-x="913" d="M104 1120q0 101 29 176.5t80 118t111.5 62.5t132.5 20q71 0 131.5 -20.5t111.5 -63t80 -117.5t29 -176q0 -100 -29 -174.5t-80 -117t-111.5 -63t-131.5 -20.5q-72 0 -132.5 19.5t-111.5 61.5t-80 117.5t-29 176.5zM223 1120q0 -135 57 -212t177 -77q121 0 178 76.5 t57 212.5q0 137 -57 214t-178 77q-120 0 -177 -77t-57 -214z" />
<glyph unicode="&#xbb;" horiz-adv-x="1265" d="M88 86l371 475l-371 475l125 101l449 -576l-449 -575zM612 86l371 475l-371 475l125 101l449 -576l-449 -575z" />
<glyph unicode="&#xbc;" horiz-adv-x="1837" d="M84 598v111h197v565h-162v82q209 0 233 131h72v-778h203v-111h-543zM438 -102l799 1689h147l-800 -1689h-146zM1079 260v119l256 526h123l-260 -534h293v69l37 144h96v-213h145v-111h-145v-147h135v-113h-407v113h135v147h-408z" />
<glyph unicode="&#xbd;" horiz-adv-x="1845" d="M74 598v111h196v565h-161v82q209 0 233 131h72v-778h202v-111h-542zM428 -102l799 1689h147l-801 -1689h-145zM1171 0v74q0 68 24 126.5t62 99t84.5 76.5t92.5 66t84 59.5t62 65.5t24 76q0 67 -43.5 104t-116.5 37q-75 0 -115.5 -33t-62.5 -98h-64v197q114 43 244 43 q62 0 114 -13t96.5 -40.5t69.5 -77.5t25 -119q0 -60 -32.5 -114t-80.5 -92t-105 -78t-105 -74t-80.5 -79t-32.5 -93h317l54 88h86v-201h-601z" />
<glyph unicode="&#xbe;" horiz-adv-x="1933" d="M100 623v188h76q10 -26 22.5 -44t35.5 -37t62 -28.5t93 -9.5q81 0 128.5 40.5t47.5 107.5q0 149 -229 149h-57v98h110q88 0 126 47t38 109q0 71 -52 107t-122 36q-84 0 -130 -28t-71 -92h-63v180q77 28 134.5 40.5t135.5 12.5q88 0 156 -23t113.5 -81.5t45.5 -147.5 q0 -121 -127 -203q64 -25 103 -77.5t39 -120.5q0 -70 -28.5 -122.5t-78 -82.5t-109 -44.5t-128.5 -14.5q-136 0 -271 41zM535 -102l798 1689h148l-801 -1689h-145zM1176 260v119l256 526h122l-260 -534h293v69l37 144h96v-213h146v-111h-146v-147h135v-113h-407v113h135v147 h-407z" />
<glyph unicode="&#xbf;" horiz-adv-x="976" d="M63 -166q0 61 22.5 119t58 105t78.5 92.5t86 89t78.5 86t58 92t22.5 98.5q0 48 -8 92h174q6 -44 6 -82q0 -65 -21 -124.5t-54.5 -105t-74.5 -88.5t-81.5 -82.5t-74 -79t-54.5 -86.5t-21 -97q0 -122 69 -186t185 -64q227 0 289 188h108v-217q-208 -106 -413 -106 q-191 0 -312 94t-121 262zM412 829v234h245v-234h-245z" />
<glyph unicode="&#xc0;" horiz-adv-x="1460" d="M18 0v123h109q12 0 23 7t14 17l399 1205h-227l29 123h526l442 -1319q10 -33 49 -33h88v-123h-503v123h161l-129 424h-518l-133 -424h158v-123h-488zM395 1985h207l213 -340v-17h-174zM518 690h436l-202 662h-23z" />
<glyph unicode="&#xc1;" horiz-adv-x="1460" d="M18 0v123h109q12 0 23 7t14 17l399 1205h-227l29 123h526l442 -1319q10 -33 49 -33h88v-123h-503v123h161l-129 424h-518l-133 -424h158v-123h-488zM518 690h436l-202 662h-23zM655 1628v17l213 340h207l-246 -357h-174z" />
<glyph unicode="&#xc2;" horiz-adv-x="1460" d="M18 0v123h109q12 0 23 7t14 17l399 1205h-227l29 123h526l442 -1319q10 -33 49 -33h88v-123h-503v123h161l-129 424h-518l-133 -424h158v-123h-488zM385 1628l233 357h207l236 -357h-168l-170 279l-170 -279h-168zM518 690h436l-202 662h-23z" />
<glyph unicode="&#xc3;" horiz-adv-x="1460" d="M18 0v123h109q12 0 23 7t14 17l399 1205h-227l29 123h526l442 -1319q10 -33 49 -33h88v-123h-503v123h161l-129 424h-518l-133 -424h158v-123h-488zM297 1741q0 68 18.5 119.5t45.5 79.5t63.5 45.5t64.5 22.5t56 5q56 0 100 -23t69.5 -57.5t50.5 -75t44 -75t48 -57.5 t65 -23q60 0 84 38.5t24 125.5q0 61 -4 98h121q14 -51 14 -113q0 -68 -18.5 -119.5t-45.5 -79.5t-63.5 -45.5t-64.5 -22.5t-56 -5q-55 0 -98.5 23t-69 57.5t-50 75t-43.5 75t-48.5 57.5t-66.5 23q-60 0 -85.5 -39t-25.5 -125q0 -42 6 -98h-121q-14 51 -14 113zM518 690h436 l-202 662h-23z" />
<glyph unicode="&#xc4;" horiz-adv-x="1460" d="M18 0v123h109q12 0 23 7t14 17l399 1205h-227l29 123h526l442 -1319q10 -33 49 -33h88v-123h-503v123h161l-129 424h-518l-133 -424h158v-123h-488zM375 1628v203h229v-203h-229zM518 690h436l-202 662h-23zM809 1628v203h229v-203h-229z" />
<glyph unicode="&#xc5;" horiz-adv-x="1460" d="M18 0v123h109q12 0 23 7t14 17l399 1205h-227l29 123h172q-17 46 -17 90q0 93 58 152t163 59t163.5 -59t58.5 -152q0 -88 -54 -148l424 -1261q10 -33 49 -33h88v-123h-503v123h161l-129 424h-518l-133 -424h158v-123h-488zM518 690h436l-202 662h-23zM643 1565 q0 -55 27.5 -82t70.5 -27t71 27t28 82t-28 81.5t-71 26.5t-70.5 -26.5t-27.5 -81.5z" />
<glyph unicode="&#xc6;" horiz-adv-x="2082" d="M-57 0v141h94q27 0 44 10t32 35l751 1160h-213l29 129h1286v-347h-125l-53 203h-553v-491h547v-144h-547v-553h553l53 203h125v-346h-1055v123h74q66 0 66 63v361h-512l-267 -424h158v-123h-487zM629 690h422v641h-21z" />
<glyph unicode="&#xc7;" horiz-adv-x="1329" d="M111 739q0 198 49.5 346t140.5 237.5t211.5 133t271.5 43.5q210 0 443 -65v-265h-107q-31 65 -70.5 104t-108.5 61t-173 22q-76 0 -143 -21t-127 -69t-102.5 -119.5t-67.5 -178t-25 -239.5t25.5 -238t70 -174t108 -114t135 -64.5t155.5 -19.5q64 0 111.5 8t78.5 21 t56.5 39t41 51t35.5 67h107v-264q-216 -60 -410 -66l-84 -104h21q110 0 172.5 -47.5t62.5 -142.5q0 -61 -31 -105t-83.5 -67t-110.5 -33.5t-125 -10.5q-38 0 -121 9v116q95 -10 154 -10q75 0 117 27.5t42 79.5q0 47 -44 75.5t-128 28.5q-15 0 -65 -4l-33 68l94 129 q-255 35 -399.5 221t-144.5 534z" />
<glyph unicode="&#xc8;" horiz-adv-x="1280" d="M109 0v123h73q66 0 66 63v1102q0 64 -66 64h-73v123h1054v-347h-125l-53 203h-553v-491h547v-144h-547v-553h553l53 203h125v-346h-1054zM356 1985h207l213 -340v-17h-174z" />
<glyph unicode="&#xc9;" horiz-adv-x="1280" d="M109 0v123h73q66 0 66 63v1102q0 64 -66 64h-73v123h1054v-347h-125l-53 203h-553v-491h547v-144h-547v-553h553l53 203h125v-346h-1054zM594 1628v17l213 340h207l-246 -357h-174z" />
<glyph unicode="&#xca;" horiz-adv-x="1280" d="M109 0v123h73q66 0 66 63v1102q0 64 -66 64h-73v123h1054v-347h-125l-53 203h-553v-491h547v-144h-547v-553h553l53 203h125v-346h-1054zM317 1628l234 357h207l235 -357h-168l-170 279l-170 -279h-168z" />
<glyph unicode="&#xcb;" horiz-adv-x="1280" d="M109 0v123h73q66 0 66 63v1102q0 64 -66 64h-73v123h1054v-347h-125l-53 203h-553v-491h547v-144h-547v-553h553l53 203h125v-346h-1054zM338 1628v203h229v-203h-229zM772 1628v203h229v-203h-229z" />
<glyph unicode="&#xcc;" horiz-adv-x="679" d="M6 1985h207l213 -340v-17h-174zM109 0v123h73q66 0 66 63v1102q0 64 -66 64h-73v123h462v-123h-73q-62 0 -66 -54v-1122q3 -53 66 -53h73v-123h-462z" />
<glyph unicode="&#xcd;" horiz-adv-x="679" d="M109 0v123h73q66 0 66 63v1102q0 64 -66 64h-73v123h462v-123h-73q-62 0 -66 -54v-1122q3 -53 66 -53h73v-123h-462zM256 1628v17l213 340h207l-246 -357h-174z" />
<glyph unicode="&#xce;" horiz-adv-x="679" d="M2 1628l234 357h206l236 -357h-168l-170 279l-170 -279h-168zM109 0v123h73q66 0 66 63v1102q0 64 -66 64h-73v123h462v-123h-73q-62 0 -66 -54v-1122q3 -53 66 -53h73v-123h-462z" />
<glyph unicode="&#xcf;" horiz-adv-x="679" d="M8 1628v203h230v-203h-230zM109 0v123h73q66 0 66 63v1102q0 64 -66 64h-73v123h462v-123h-73q-62 0 -66 -54v-1122q3 -53 66 -53h73v-123h-462zM442 1628v203h230v-203h-230z" />
<glyph unicode="&#xd0;" horiz-adv-x="1570" d="M20 662v137h275v489q0 64 -66 64h-73v123h618q155 0 280 -43.5t216.5 -130.5t141.5 -226t50 -321q0 -363 -187 -558.5t-501 -195.5h-618v123h73q66 0 66 63v476h-275zM479 141h264q92 0 168 20.5t130 55t95 83.5t66 102t40.5 116t21.5 119.5t6 116.5q0 87 -12 162 t-47 154.5t-91 135t-153 91.5t-224 36h-264v-534h303v-137h-303v-521z" />
<glyph unicode="&#xd1;" horiz-adv-x="1619" d="M109 0v123h73q66 0 66 63v1102q0 64 -66 64h-73v123h348l753 -1205v1082h-139v123h451v-123h-74q-66 0 -66 -64v-1288h-215l-745 1182v-1059h139v-123h-452zM377 1745q0 68 18.5 119.5t45.5 79.5t63.5 45.5t64.5 22.5t56 5q48 0 87 -17t65 -44.5t47.5 -60.5t39.5 -66.5 t36.5 -61t44 -44.5t56.5 -17q60 0 84.5 38.5t24.5 125.5q0 61 -4 98h121q14 -51 14 -113q0 -68 -18.5 -119.5t-45.5 -79.5t-63.5 -45.5t-64.5 -22.5t-56 -5q-55 0 -98.5 23t-69 57.5t-50 75t-44 75t-49 57.5t-66.5 23q-60 0 -85 -38.5t-25 -124.5q0 -43 6 -99h-121 q-14 51 -14 113z" />
<glyph unicode="&#xd2;" d="M106 737q0 183 48.5 328.5t137 240t211 144t271.5 49.5t271.5 -49.5t211 -144t137 -240t48.5 -328.5t-48.5 -328.5t-137 -240t-211 -144t-271.5 -49.5t-271.5 49.5t-211 144t-137 240t-48.5 328.5zM299 737q0 -134 25.5 -240.5t69.5 -176.5t105 -116t129 -65.5t146 -19.5 t146 19.5t129 65.5t105 116t69.5 176.5t25.5 240.5q0 167 -38.5 290.5t-106 194t-150 103.5t-180.5 33t-180.5 -33t-150 -103.5t-106 -194t-38.5 -290.5zM446 1985h207l213 -340v-17h-174z" />
<glyph unicode="&#xd3;" d="M106 737q0 183 48.5 328.5t137 240t211 144t271.5 49.5t271.5 -49.5t211 -144t137 -240t48.5 -328.5t-48.5 -328.5t-137 -240t-211 -144t-271.5 -49.5t-271.5 49.5t-211 144t-137 240t-48.5 328.5zM299 737q0 -134 25.5 -240.5t69.5 -176.5t105 -116t129 -65.5t146 -19.5 t146 19.5t129 65.5t105 116t69.5 176.5t25.5 240.5q0 167 -38.5 290.5t-106 194t-150 103.5t-180.5 33t-180.5 -33t-150 -103.5t-106 -194t-38.5 -290.5zM668 1628v17l213 340h206l-245 -357h-174z" />
<glyph unicode="&#xd4;" d="M106 737q0 183 48.5 328.5t137 240t211 144t271.5 49.5t271.5 -49.5t211 -144t137 -240t48.5 -328.5t-48.5 -328.5t-137 -240t-211 -144t-271.5 -49.5t-271.5 49.5t-211 144t-137 240t-48.5 328.5zM299 737q0 -134 25.5 -240.5t69.5 -176.5t105 -116t129 -65.5t146 -19.5 t146 19.5t129 65.5t105 116t69.5 176.5t25.5 240.5q0 167 -38.5 290.5t-106 194t-150 103.5t-180.5 33t-180.5 -33t-150 -103.5t-106 -194t-38.5 -290.5zM436 1628l234 357h207l235 -357h-168l-170 279l-170 -279h-168z" />
<glyph unicode="&#xd5;" d="M106 737q0 183 48.5 328.5t137 240t211 144t271.5 49.5t271.5 -49.5t211 -144t137 -240t48.5 -328.5t-48.5 -328.5t-137 -240t-211 -144t-271.5 -49.5t-271.5 49.5t-211 144t-137 240t-48.5 328.5zM299 737q0 -134 25.5 -240.5t69.5 -176.5t105 -116t129 -65.5t146 -19.5 t146 19.5t129 65.5t105 116t69.5 176.5t25.5 240.5q0 167 -38.5 290.5t-106 194t-150 103.5t-180.5 33t-180.5 -33t-150 -103.5t-106 -194t-38.5 -290.5zM342 1741q0 68 18.5 119.5t45.5 79.5t63.5 45.5t64.5 22.5t56 5q56 0 100 -23t69.5 -57.5t50.5 -75t44 -75t48 -57.5 t65 -23q60 0 84 38.5t24 125.5q0 61 -4 98h121q14 -51 14 -113q0 -68 -18.5 -119.5t-45.5 -79.5t-63.5 -45.5t-64.5 -22.5t-56 -5q-55 0 -98.5 23t-69 57.5t-50 75t-43.5 75t-48.5 57.5t-66.5 23q-60 0 -85.5 -39t-25.5 -125q0 -42 6 -98h-121q-14 51 -14 113z" />
<glyph unicode="&#xd6;" d="M106 737q0 183 48.5 328.5t137 240t211 144t271.5 49.5t271.5 -49.5t211 -144t137 -240t48.5 -328.5t-48.5 -328.5t-137 -240t-211 -144t-271.5 -49.5t-271.5 49.5t-211 144t-137 240t-48.5 328.5zM299 737q0 -134 25.5 -240.5t69.5 -176.5t105 -116t129 -65.5t146 -19.5 t146 19.5t129 65.5t105 116t69.5 176.5t25.5 240.5q0 167 -38.5 290.5t-106 194t-150 103.5t-180.5 33t-180.5 -33t-150 -103.5t-106 -194t-38.5 -290.5zM442 1628v203h230v-203h-230zM877 1628v203h229v-203h-229z" />
<glyph unicode="&#xd7;" horiz-adv-x="1026" d="M123 283l291 290l-289 291l98 99l289 -291l293 293l96 -97l-293 -293l297 -294l-98 -99l-297 295l-291 -291z" />
<glyph unicode="&#xd8;" d="M106 737q0 183 48.5 328.5t137 240t211 144t271.5 49.5q123 0 221 -33l49 119h152l-74 -174q153 -90 236.5 -260t83.5 -414q0 -183 -48.5 -328.5t-137 -240t-211 -144t-271.5 -49.5q-125 0 -235 35l-52 -123h-143l74 181q-150 90 -231 259t-81 410zM299 737 q0 -366 180 -518l461 1112q-80 27 -166 27q-98 0 -180.5 -33t-150 -103.5t-106 -194t-38.5 -290.5zM596 150q74 -31 178 -31q78 0 146 19.5t129 65.5t105 116t69.5 176.5t25.5 240.5q0 372 -188 525z" />
<glyph unicode="&#xd9;" horiz-adv-x="1499" d="M92 1352v123h430v-123h-127v-877q0 -356 361 -356q51 0 96.5 7.5t97 30.5t88.5 60t61.5 102.5t24.5 151.5v881h-118v123h403v-123h-61q-58 0 -58 -56v-802q0 -256 -135 -387.5t-407 -131.5q-283 0 -410 130.5t-127 388.5v802q0 56 -57 56h-62zM436 1985h207l213 -340v-17 h-174z" />
<glyph unicode="&#xda;" horiz-adv-x="1499" d="M92 1352v123h430v-123h-127v-877q0 -356 361 -356q51 0 96.5 7.5t97 30.5t88.5 60t61.5 102.5t24.5 151.5v881h-118v123h403v-123h-61q-58 0 -58 -56v-802q0 -256 -135 -387.5t-407 -131.5q-283 0 -410 130.5t-127 388.5v802q0 56 -57 56h-62zM680 1628v17l213 340h207 l-246 -357h-174z" />
<glyph unicode="&#xdb;" horiz-adv-x="1499" d="M92 1352v123h430v-123h-127v-877q0 -356 361 -356q51 0 96.5 7.5t97 30.5t88.5 60t61.5 102.5t24.5 151.5v881h-118v123h403v-123h-61q-58 0 -58 -56v-802q0 -256 -135 -387.5t-407 -131.5q-283 0 -410 130.5t-127 388.5v802q0 56 -57 56h-62zM410 1628l233 357h207 l235 -357h-167l-170 279l-170 -279h-168z" />
<glyph unicode="&#xdc;" horiz-adv-x="1499" d="M92 1352v123h430v-123h-127v-877q0 -356 361 -356q51 0 96.5 7.5t97 30.5t88.5 60t61.5 102.5t24.5 151.5v881h-118v123h403v-123h-61q-58 0 -58 -56v-802q0 -256 -135 -387.5t-407 -131.5q-283 0 -410 130.5t-127 388.5v802q0 56 -57 56h-62zM424 1628v203h229v-203 h-229zM858 1628v203h229v-203h-229z" />
<glyph unicode="&#xdd;" horiz-adv-x="1427" d="M-10 1352v123h504v-123h-158l389 -641l385 641h-156v123h488v-123h-105q-28 0 -42 -11t-29 -34l-459 -738v-393q0 -53 65 -53h74v-123h-463v123h74q66 0 66 63v383l-465 738q-10 15 -17 23.5t-21.5 15t-33.5 6.5h-96zM653 1628v17l213 340h207l-246 -357h-174z" />
<glyph unicode="&#xde;" horiz-adv-x="1286" d="M109 0v123h73q66 0 66 63v1102q0 64 -66 64h-73v123h462v-123h-139v-152h338q92 0 168.5 -27t127 -71.5t85.5 -103t50.5 -119t15.5 -121.5q0 -92 -30.5 -174.5t-88 -148.5t-150 -105t-207.5 -39h-309v-168h139v-123h-462zM432 434h270q91 0 156.5 26t100.5 72.5t50 100 t15 117.5q0 63 -18 116.5t-55.5 97t-102 68.5t-150.5 25h-266v-623z" />
<glyph unicode="&#xdf;" horiz-adv-x="1181" d="M57 0v113h99q19 0 29 2t18 13.5t8 33.5v991q0 112 36 198.5t96 136t130.5 74.5t147.5 25q95 0 173 -30t127.5 -81t76 -115t26.5 -134q0 -52 -11 -102t-37 -101t-65 -92t-99 -74t-134 -49q185 -22 298.5 -120.5t113.5 -278.5q0 -202 -115 -309t-297 -107q-85 0 -166 20 v129q95 -18 152 -18q243 0 243 301q0 143 -97.5 207t-274.5 72v192q74 0 133.5 28t96 74.5t56 101.5t19.5 113q0 102 -55.5 171t-155.5 69q-101 0 -171.5 -71.5t-70.5 -204.5v-1178h-330z" />
<glyph unicode="&#xe0;" horiz-adv-x="1136" d="M82 303q0 144 112 237t322 93h258v145q0 96 -62.5 161t-183.5 65q-26 0 -46.5 -1.5t-52.5 -6.5t-57.5 -17.5t-52.5 -31t-46.5 -50.5t-30.5 -74h-90v242q227 65 380 65q70 0 129.5 -11.5t114 -39t92 -71t60 -111t22.5 -154.5v-546q0 -39 21 -61.5t63 -22.5h60v-109 q-59 -16 -121 -16q-168 0 -187 125q-80 -62 -181.5 -94.5t-188.5 -32.5q-64 0 -122.5 20t-106.5 57.5t-76.5 99.5t-28.5 140zM217 1616h207l213 -340v-16h-174zM264 309q0 -96 57 -140t150 -44q77 0 161 31.5t142 76.5v277h-239q-271 0 -271 -201z" />
<glyph unicode="&#xe1;" horiz-adv-x="1136" d="M82 303q0 144 112 237t322 93h258v145q0 96 -62.5 161t-183.5 65q-26 0 -46.5 -1.5t-52.5 -6.5t-57.5 -17.5t-52.5 -31t-46.5 -50.5t-30.5 -74h-90v242q227 65 380 65q70 0 129.5 -11.5t114 -39t92 -71t60 -111t22.5 -154.5v-546q0 -39 21 -61.5t63 -22.5h60v-109 q-59 -16 -121 -16q-168 0 -187 125q-80 -62 -181.5 -94.5t-188.5 -32.5q-64 0 -122.5 20t-106.5 57.5t-76.5 99.5t-28.5 140zM264 309q0 -96 57 -140t150 -44q77 0 161 31.5t142 76.5v277h-239q-271 0 -271 -201zM422 1260v16l213 340h207l-246 -356h-174z" />
<glyph unicode="&#xe2;" horiz-adv-x="1136" d="M82 303q0 144 112 237t322 93h258v145q0 96 -62.5 161t-183.5 65q-26 0 -46.5 -1.5t-52.5 -6.5t-57.5 -17.5t-52.5 -31t-46.5 -50.5t-30.5 -74h-90v242q227 65 380 65q70 0 129.5 -11.5t114 -39t92 -71t60 -111t22.5 -154.5v-546q0 -39 21 -61.5t63 -22.5h60v-109 q-59 -16 -121 -16q-168 0 -187 125q-80 -62 -181.5 -94.5t-188.5 -32.5q-64 0 -122.5 20t-106.5 57.5t-76.5 99.5t-28.5 140zM184 1260l234 356h207l235 -356h-168l-170 278l-170 -278h-168zM264 309q0 -96 57 -140t150 -44q77 0 161 31.5t142 76.5v277h-239 q-271 0 -271 -201z" />
<glyph unicode="&#xe3;" horiz-adv-x="1136" d="M82 303q0 144 112 237t322 93h258v145q0 96 -62.5 161t-183.5 65q-26 0 -46.5 -1.5t-52.5 -6.5t-57.5 -17.5t-52.5 -31t-46.5 -50.5t-30.5 -74h-90v242q227 65 380 65q70 0 129.5 -11.5t114 -39t92 -71t60 -111t22.5 -154.5v-546q0 -39 21 -61.5t63 -22.5h60v-109 q-59 -16 -121 -16q-168 0 -187 125q-80 -62 -181.5 -94.5t-188.5 -32.5q-64 0 -122.5 20t-106.5 57.5t-76.5 99.5t-28.5 140zM96 1425q0 68 18.5 119.5t45.5 79.5t63 46t64.5 23t56.5 5q48 0 87 -17t65 -44.5t47.5 -61t39.5 -67t37 -61t44.5 -44.5t56.5 -17q60 0 84 38.5 t24 125.5q0 62 -4 99h121q15 -54 15 -113q0 -68 -18.5 -119.5t-45.5 -79.5t-63.5 -45.5t-64.5 -22.5t-56 -5q-65 0 -113.5 32t-76.5 78t-53 91.5t-58 77.5t-76 32q-60 0 -85.5 -39t-25.5 -125q0 -43 6 -98h-120q-15 54 -15 112zM264 309q0 -96 57 -140t150 -44 q77 0 161 31.5t142 76.5v277h-239q-271 0 -271 -201z" />
<glyph unicode="&#xe4;" horiz-adv-x="1136" d="M82 303q0 144 112 237t322 93h258v145q0 96 -62.5 161t-183.5 65q-26 0 -46.5 -1.5t-52.5 -6.5t-57.5 -17.5t-52.5 -31t-46.5 -50.5t-30.5 -74h-90v242q227 65 380 65q70 0 129.5 -11.5t114 -39t92 -71t60 -111t22.5 -154.5v-546q0 -39 21 -61.5t63 -22.5h60v-109 q-59 -16 -121 -16q-168 0 -187 125q-80 -62 -181.5 -94.5t-188.5 -32.5q-64 0 -122.5 20t-106.5 57.5t-76.5 99.5t-28.5 140zM215 1341v203h229v-203h-229zM264 309q0 -96 57 -140t150 -44q77 0 161 31.5t142 76.5v277h-239q-271 0 -271 -201zM649 1341v203h230v-203h-230z " />
<glyph unicode="&#xe5;" horiz-adv-x="1136" d="M82 303q0 144 112 237t322 93h258v145q0 96 -62.5 161t-183.5 65q-26 0 -46.5 -1.5t-52.5 -6.5t-57.5 -17.5t-52.5 -31t-46.5 -50.5t-30.5 -74h-90v242q227 65 380 65q70 0 129.5 -11.5t114 -39t92 -71t60 -111t22.5 -154.5v-546q0 -39 21 -61.5t63 -22.5h60v-109 q-59 -16 -121 -16q-168 0 -187 125q-80 -62 -181.5 -94.5t-188.5 -32.5q-64 0 -122.5 20t-106.5 57.5t-76.5 99.5t-28.5 140zM264 309q0 -96 57 -140t150 -44q77 0 161 31.5t142 76.5v277h-239q-271 0 -271 -201zM293 1450q0 93 58 152t163 59t163 -59t58 -152t-58 -152 t-163 -59t-163 59t-58 152zM416 1450q0 -55 27.5 -82t70.5 -27t70.5 27t27.5 82t-27.5 82t-70.5 27t-70.5 -27t-27.5 -82z" />
<glyph unicode="&#xe6;" horiz-adv-x="1830" d="M82 303q0 144 112 237t322 93h258v158q0 86 -61 149.5t-174 63.5q-29 0 -51 -1.5t-55.5 -6.5t-59.5 -17.5t-53 -31t-47 -50.5t-31 -74h-90v242q218 65 380 65q259 0 361 -161q63 78 160 119.5t217 41.5q113 0 197.5 -31t134 -80.5t80 -122.5t41 -145.5t10.5 -160.5v-84 h-783v-21q9 -376 346 -376q45 0 80.5 3.5t79.5 16.5t76.5 35t61 63t42.5 97h68v-240q-77 -46 -199 -77.5t-209 -31.5q-303 0 -434 168q-220 -157 -446 -157q-64 0 -122.5 20t-106.5 57.5t-76.5 99.5t-28.5 140zM264 309q0 -96 57 -140t150 -44q79 0 163 28.5t140 71.5v285 h-239q-271 0 -271 -201zM950 633h606q0 56 -5.5 102t-24 97t-49 85.5t-85 57t-128.5 22.5q-148 0 -226.5 -86t-87.5 -233v-45z" />
<glyph unicode="&#xe7;" horiz-adv-x="1095" d="M96 553q0 131 33 234t86 166t126.5 104t147.5 57t156 16q93 0 187 -21.5t163 -55.5v-219h-102q-31 72 -94 117.5t-160 45.5q-173 0 -265.5 -116.5t-92.5 -327.5q0 -202 92 -323t272 -121q176 0 254 165h96v-221q-144 -72 -321 -78l-84 -104h20q110 0 173 -47.5t63 -142.5 q0 -61 -31 -105t-83.5 -67t-110.5 -33.5t-125 -10.5q-38 0 -121 9v116q95 -10 153 -10q75 0 117.5 27.5t42.5 79.5q0 47 -44 75.5t-128 28.5q-15 0 -65 -4l-33 68l96 133q-68 12 -126.5 36.5t-113 69t-93.5 106t-62 152t-23 201.5z" />
<glyph unicode="&#xe8;" horiz-adv-x="1167" d="M98 557q0 276 133.5 424.5t374.5 148.5q113 0 197.5 -31t134 -80.5t80 -122.5t41 -145.5t10.5 -160.5v-84h-782q0 -397 346 -397q45 0 80.5 3.5t79.5 16.5t76.5 35t61 63t42.5 97h67v-240q-77 -46 -199 -77.5t-208 -31.5q-267 0 -401 140.5t-134 441.5zM254 1616h207 l213 -340v-16h-174zM285 633h608q0 56 -5.5 102t-24 97t-49.5 85.5t-85.5 57t-128.5 22.5q-159 0 -237 -99t-78 -265z" />
<glyph unicode="&#xe9;" horiz-adv-x="1167" d="M98 557q0 276 133.5 424.5t374.5 148.5q113 0 197.5 -31t134 -80.5t80 -122.5t41 -145.5t10.5 -160.5v-84h-782q0 -397 346 -397q45 0 80.5 3.5t79.5 16.5t76.5 35t61 63t42.5 97h67v-240q-77 -46 -199 -77.5t-208 -31.5q-267 0 -401 140.5t-134 441.5zM285 633h608 q0 56 -5.5 102t-24 97t-49.5 85.5t-85.5 57t-128.5 22.5q-159 0 -237 -99t-78 -265zM459 1260v16l213 340h207l-246 -356h-174z" />
<glyph unicode="&#xea;" horiz-adv-x="1167" d="M98 557q0 276 133.5 424.5t374.5 148.5q113 0 197.5 -31t134 -80.5t80 -122.5t41 -145.5t10.5 -160.5v-84h-782q0 -397 346 -397q45 0 80.5 3.5t79.5 16.5t76.5 35t61 63t42.5 97h67v-240q-77 -46 -199 -77.5t-208 -31.5q-267 0 -401 140.5t-134 441.5zM242 1260l233 356 h207l236 -356h-168l-170 278l-170 -278h-168zM285 633h608q0 56 -5.5 102t-24 97t-49.5 85.5t-85.5 57t-128.5 22.5q-159 0 -237 -99t-78 -265z" />
<glyph unicode="&#xeb;" horiz-adv-x="1167" d="M98 557q0 276 133.5 424.5t374.5 148.5q113 0 197.5 -31t134 -80.5t80 -122.5t41 -145.5t10.5 -160.5v-84h-782q0 -397 346 -397q45 0 80.5 3.5t79.5 16.5t76.5 35t61 63t42.5 97h67v-240q-77 -46 -199 -77.5t-208 -31.5q-267 0 -401 140.5t-134 441.5zM254 1341v203h229 v-203h-229zM285 633h608q0 56 -5.5 102t-24 97t-49.5 85.5t-85.5 57t-128.5 22.5q-159 0 -237 -99t-78 -265zM688 1341v203h230v-203h-230z" />
<glyph unicode="&#xec;" horiz-adv-x="585" d="M-59 1616h206l213 -340v-16h-174zM55 989v113h322v-866q0 -65 20 -96t72 -31q41 0 51 2v-117q-55 -10 -102 -10q-217 0 -217 206v750q0 22 -8.5 33.5t-18.5 13.5t-29 2h-90z" />
<glyph unicode="&#xed;" horiz-adv-x="585" d="M55 989v113h322v-866q0 -65 20 -96t72 -31q41 0 51 2v-117q-55 -10 -102 -10q-217 0 -217 206v750q0 22 -8.5 33.5t-18.5 13.5t-29 2h-90zM205 1260v16l213 340h207l-246 -356h-174z" />
<glyph unicode="&#xee;" horiz-adv-x="585" d="M-70 1260l234 356h207l235 -356h-168l-170 278l-170 -278h-168zM55 989v113h322v-866q0 -65 20 -96t72 -31q41 0 51 2v-117q-55 -10 -102 -10q-217 0 -217 206v750q0 22 -8.5 33.5t-18.5 13.5t-29 2h-90z" />
<glyph unicode="&#xef;" horiz-adv-x="585" d="M-59 1341v203h229v-203h-229zM55 989v113h322v-866q0 -65 20 -96t72 -31q41 0 51 2v-117q-55 -10 -102 -10q-217 0 -217 206v750q0 22 -8.5 33.5t-18.5 13.5t-29 2h-90zM375 1341v203h229v-203h-229z" />
<glyph unicode="&#xf0;" horiz-adv-x="1280" d="M96 553q0 125 30 224.5t80.5 164.5t121 108t147.5 61.5t164 18.5q70 0 168 -24q-54 86 -139 184l-162 -92l-72 109l144 79q-104 107 -199 177h219q74 -66 113 -103l157 90l66 -108l-131 -74q379 -405 379 -815q0 -155 -45 -270t-123 -180.5t-171.5 -96.5t-203.5 -31 q-87 0 -164 18t-147.5 61t-121 108.5t-80.5 165t-30 225.5zM281 553q0 -210 87 -328.5t271 -118.5q186 0 274 118.5t88 328.5t-88 328t-274 118q-184 0 -271 -118t-87 -328z" />
<glyph unicode="&#xf1;" horiz-adv-x="1337" d="M80 989v113h323v-125q221 151 420 151q65 0 120.5 -18t100 -55t70 -100.5t25.5 -147.5v-645q0 -22 8 -33.5t18 -13.5t29 -2h90v-113h-465v113h144v645q0 115 -55.5 167t-166.5 52q-72 0 -167 -35.5t-173 -85.5v-743h146v-113h-465v113h88q19 0 29 2t18 13.5t8 33.5v778 q0 22 -8 33.5t-18 13.5t-29 2h-90zM229 1425q0 68 18.5 119.5t45.5 79.5t63 46t64.5 23t56.5 5q48 0 87 -17t65 -44.5t47.5 -61t39.5 -67t37 -61t44.5 -44.5t56.5 -17q60 0 84.5 38.5t24.5 125.5q0 53 -5 99h121q15 -54 15 -113q0 -68 -18.5 -119.5t-45.5 -79.5t-63.5 -45.5 t-64.5 -22.5t-56 -5q-65 0 -113.5 32t-76.5 78t-53 91.5t-58 77.5t-76 32q-60 0 -85.5 -39t-25.5 -125q0 -33 7 -98h-121q-15 54 -15 112z" />
<glyph unicode="&#xf2;" horiz-adv-x="1277" d="M96 553q0 125 30 224.5t80.5 164.5t121 108t147.5 61.5t164 18.5t164 -18.5t147.5 -62t121 -108.5t80.5 -164t30 -224q0 -155 -45 -270t-123 -180.5t-171.5 -96.5t-203.5 -31q-87 0 -164 18t-147.5 61t-121 108.5t-80.5 165t-30 225.5zM281 553q0 -210 87 -328.5 t271 -118.5q186 0 274 118.5t88 328.5t-88 328t-274 118q-184 0 -271 -118t-87 -328zM315 1616h207l213 -340v-16h-174z" />
<glyph unicode="&#xf3;" horiz-adv-x="1277" d="M96 553q0 125 30 224.5t80.5 164.5t121 108t147.5 61.5t164 18.5t164 -18.5t147.5 -62t121 -108.5t80.5 -164t30 -224q0 -155 -45 -270t-123 -180.5t-171.5 -96.5t-203.5 -31q-87 0 -164 18t-147.5 61t-121 108.5t-80.5 165t-30 225.5zM281 553q0 -210 87 -328.5 t271 -118.5q186 0 274 118.5t88 328.5t-88 328t-274 118q-184 0 -271 -118t-87 -328zM553 1260v16l213 340h207l-246 -356h-174z" />
<glyph unicode="&#xf4;" horiz-adv-x="1277" d="M96 553q0 125 30 224.5t80.5 164.5t121 108t147.5 61.5t164 18.5t164 -18.5t147.5 -62t121 -108.5t80.5 -164t30 -224q0 -155 -45 -270t-123 -180.5t-171.5 -96.5t-203.5 -31q-87 0 -164 18t-147.5 61t-121 108.5t-80.5 165t-30 225.5zM281 553q0 -210 87 -328.5 t271 -118.5q186 0 274 118.5t88 328.5t-88 328t-274 118q-184 0 -271 -118t-87 -328zM309 1260l234 356h207l235 -356h-168l-170 278l-170 -278h-168z" />
<glyph unicode="&#xf5;" horiz-adv-x="1277" d="M96 553q0 125 30 224.5t80.5 164.5t121 108t147.5 61.5t164 18.5t164 -18.5t147.5 -62t121 -108.5t80.5 -164t30 -224q0 -155 -45 -270t-123 -180.5t-171.5 -96.5t-203.5 -31q-87 0 -164 18t-147.5 61t-121 108.5t-80.5 165t-30 225.5zM219 1409q0 68 18.5 119.5 t45.5 79.5t63.5 45.5t64.5 22.5t56 5q56 0 100 -23t69.5 -57.5t50.5 -75t44 -75t48 -57.5t65 -23q60 0 84 38.5t24 125.5q0 61 -4 98h121q14 -51 14 -112q0 -68 -18.5 -119.5t-45.5 -79.5t-63 -46t-64 -23t-56 -5q-55 0 -98.5 23t-69 58t-50 75t-44 75t-49 58t-66.5 23 q-60 0 -85.5 -39t-25.5 -125q0 -43 6 -99h-121q-14 51 -14 113zM281 553q0 -210 87 -328.5t271 -118.5q186 0 274 118.5t88 328.5t-88 328t-274 118q-184 0 -271 -118t-87 -328z" />
<glyph unicode="&#xf6;" horiz-adv-x="1277" d="M96 553q0 125 30 224.5t80.5 164.5t121 108t147.5 61.5t164 18.5t164 -18.5t147.5 -62t121 -108.5t80.5 -164t30 -224q0 -155 -45 -270t-123 -180.5t-171.5 -96.5t-203.5 -31q-87 0 -164 18t-147.5 61t-121 108.5t-80.5 165t-30 225.5zM281 553q0 -210 87 -328.5 t271 -118.5q186 0 274 118.5t88 328.5t-88 328t-274 118q-184 0 -271 -118t-87 -328zM303 1341v203h229v-203h-229zM737 1341v203h230v-203h-230z" />
<glyph unicode="&#xf7;" horiz-adv-x="1263" d="M150 508v137h964v-137h-964zM565 88v145h152v-145h-152zM565 909v146h152v-146h-152z" />
<glyph unicode="&#xf8;" horiz-adv-x="1277" d="M96 553q0 125 30 224.5t80.5 164.5t121 108t147.5 61.5t164 18.5q101 0 186 -26l64 149h151l-88 -204q230 -143 230 -496q0 -155 -45 -270t-123 -180.5t-171.5 -96.5t-203.5 -31q-55 0 -143 15l-62 -146h-143l80 187q-275 131 -275 522zM281 553q0 -282 147 -387l344 813 q-56 20 -133 20q-184 0 -271 -118t-87 -328zM549 115q44 -9 90 -9q186 0 274 118.5t88 328.5q0 238 -110 354z" />
<glyph unicode="&#xf9;" horiz-adv-x="1318" d="M51 989v113h322v-756q0 -124 53 -171.5t168 -47.5q73 0 168 35t172 84v694q0 22 -8 33.5t-18 13.5t-29 2h-117v113h348v-881q0 -58 24.5 -83t75.5 -25h43v-111q-66 -16 -125 -16q-36 0 -61.5 4.5t-53.5 18.5t-45.5 44.5t-23.5 77.5q-97 -66 -217 -111t-215 -45 q-65 0 -120.5 18t-100 55t-69.5 101t-25 148v643q0 22 -8.5 33.5t-18.5 13.5t-29 2h-90zM315 1616h207l213 -340v-16h-174z" />
<glyph unicode="&#xfa;" horiz-adv-x="1318" d="M51 989v113h322v-756q0 -124 53 -171.5t168 -47.5q73 0 168 35t172 84v694q0 22 -8 33.5t-18 13.5t-29 2h-117v113h348v-881q0 -58 24.5 -83t75.5 -25h43v-111q-66 -16 -125 -16q-36 0 -61.5 4.5t-53.5 18.5t-45.5 44.5t-23.5 77.5q-97 -66 -217 -111t-215 -45 q-65 0 -120.5 18t-100 55t-69.5 101t-25 148v643q0 22 -8.5 33.5t-18.5 13.5t-29 2h-90zM506 1260v16l213 340h207l-246 -356h-174z" />
<glyph unicode="&#xfb;" horiz-adv-x="1318" d="M51 989v113h322v-756q0 -124 53 -171.5t168 -47.5q73 0 168 35t172 84v694q0 22 -8 33.5t-18 13.5t-29 2h-117v113h348v-881q0 -58 24.5 -83t75.5 -25h43v-111q-66 -16 -125 -16q-36 0 -61.5 4.5t-53.5 18.5t-45.5 44.5t-23.5 77.5q-97 -66 -217 -111t-215 -45 q-65 0 -120.5 18t-100 55t-69.5 101t-25 148v643q0 22 -8.5 33.5t-18.5 13.5t-29 2h-90zM289 1260l233 356h207l236 -356h-168l-170 278l-170 -278h-168z" />
<glyph unicode="&#xfc;" horiz-adv-x="1318" d="M51 989v113h322v-756q0 -124 53 -171.5t168 -47.5q73 0 168 35t172 84v694q0 22 -8 33.5t-18 13.5t-29 2h-117v113h348v-881q0 -58 24.5 -83t75.5 -25h43v-111q-66 -16 -125 -16q-36 0 -61.5 4.5t-53.5 18.5t-45.5 44.5t-23.5 77.5q-97 -66 -217 -111t-215 -45 q-65 0 -120.5 18t-100 55t-69.5 101t-25 148v643q0 22 -8.5 33.5t-18.5 13.5t-29 2h-90zM279 1341v203h229v-203h-229zM713 1341v203h229v-203h-229z" />
<glyph unicode="&#xfd;" horiz-adv-x="1181" d="M20 989v113h463v-113h-184l307 -833l301 833h-168v113h414v-113h-57q-29 0 -39 -24l-361 -963l-133 -422h-239v43l260 365v10h-90l-375 967q-12 24 -45 24h-54zM512 1260v16l213 340h207l-246 -356h-174z" />
<glyph unicode="&#xfe;" horiz-adv-x="1263" d="M29 1450v113h323v-572q208 139 396 139q86 0 159 -31t132 -94.5t92.5 -173.5t33.5 -256q0 -134 -28 -237.5t-76 -171t-117.5 -111.5t-147.5 -62t-171 -18q-98 0 -275 37v-319h146v-113h-465v113h88q19 0 29 2t18 13.5t8 33.5v1661q0 31 -13.5 39t-41.5 8h-90zM352 152 q135 -43 250 -43q109 0 185 33t118 96.5t60 143.5t18 187q0 214 -76.5 318t-206.5 104q-155 0 -348 -135v-704z" />
<glyph unicode="&#xff;" horiz-adv-x="1181" d="M20 989v113h463v-113h-184l307 -833l301 833h-168v113h414v-113h-57q-29 0 -39 -24l-361 -963l-133 -422h-239v43l260 365v10h-90l-375 967q-12 24 -45 24h-54zM266 1341v203h230v-203h-230zM700 1341v203h230v-203h-230z" />
<glyph unicode="&#x152;" horiz-adv-x="2082" d="M106 737q0 183 48.5 328.5t137 240t211 144t271.5 49.5q115 0 223 -24h969v-347h-125l-53 203h-553v-491h547v-144h-547v-553h553l53 203h125v-346h-967q-97 -25 -225 -25q-149 0 -271.5 49.5t-211 144t-137 240t-48.5 328.5zM299 737q0 -131 27 -237t73 -176.5 t110.5 -117.5t136 -68t151.5 -21q132 0 254 49v1134q-148 56 -277 56q-218 0 -346.5 -156.5t-128.5 -462.5z" />
<glyph unicode="&#x153;" horiz-adv-x="2066" d="M96 553q0 125 30 224.5t80.5 164.5t121 108t147.5 61.5t164 18.5q139 0 255.5 -51.5t188.5 -158.5q132 210 422 210q113 0 197.5 -31t134 -80.5t80 -122.5t41 -145.5t10.5 -160.5v-84h-782q0 -397 346 -397q45 0 80.5 3.5t79.5 16.5t76.5 35t61 63t42.5 97h67v-240 q-77 -46 -199 -77.5t-208 -31.5q-323 0 -451 205q-73 -105 -189 -155t-253 -50q-87 0 -164 18t-147.5 61t-121 108.5t-80.5 165t-30 225.5zM281 553q0 -210 87 -328.5t271 -118.5q186 0 274 118.5t88 328.5t-88 328t-274 118q-184 0 -271 -118t-87 -328zM1184 633h608 q0 56 -5.5 102t-24 97t-49.5 85.5t-85.5 57t-128.5 22.5q-159 0 -237 -99t-78 -265z" />
<glyph unicode="&#x178;" horiz-adv-x="1427" d="M-10 1352v123h504v-123h-158l389 -641l385 641h-156v123h488v-123h-105q-28 0 -42 -11t-29 -34l-459 -738v-393q0 -53 65 -53h74v-123h-463v123h74q66 0 66 63v383l-465 738q-10 15 -17 23.5t-21.5 15t-33.5 6.5h-96zM385 1628v203h229v-203h-229zM819 1628v203h230v-203 h-230z" />
<glyph unicode="&#x2c6;" horiz-adv-x="1392" d="M358 1260l234 356h207l235 -356h-168l-170 278l-170 -278h-168z" />
<glyph unicode="&#x2dc;" horiz-adv-x="1437" d="M303 1409q0 68 18.5 119.5t45.5 79.5t63.5 45.5t64.5 22.5t56 5q56 0 100 -23t69.5 -57.5t50.5 -75t44 -75t48 -57.5t65 -23q60 0 84 38.5t24 125.5q0 61 -4 98h121q14 -51 14 -112q0 -68 -18.5 -119.5t-45.5 -79.5t-63 -46t-64 -23t-56 -5q-55 0 -98.5 23t-69 58t-50 75 t-44 75t-49 58t-66.5 23q-60 0 -85.5 -39t-25.5 -125q0 -43 6 -99h-121q-14 51 -14 113z" />
<glyph unicode="&#x2000;" horiz-adv-x="1008" />
<glyph unicode="&#x2001;" horiz-adv-x="2017" />
<glyph unicode="&#x2002;" horiz-adv-x="1008" />
<glyph unicode="&#x2003;" horiz-adv-x="2017" />
<glyph unicode="&#x2004;" horiz-adv-x="672" />
<glyph unicode="&#x2005;" horiz-adv-x="504" />
<glyph unicode="&#x2006;" horiz-adv-x="336" />
<glyph unicode="&#x2007;" horiz-adv-x="336" />
<glyph unicode="&#x2008;" horiz-adv-x="252" />
<glyph unicode="&#x2009;" horiz-adv-x="403" />
<glyph unicode="&#x200a;" horiz-adv-x="112" />
<glyph unicode="&#x2010;" horiz-adv-x="987" d="M143 508v143h701v-143h-701z" />
<glyph unicode="&#x2011;" horiz-adv-x="987" d="M143 508v143h701v-143h-701z" />
<glyph unicode="&#x2012;" horiz-adv-x="987" d="M143 508v143h701v-143h-701z" />
<glyph unicode="&#x2013;" horiz-adv-x="1406" d="M143 508v143h1121v-143h-1121z" />
<glyph unicode="&#x2014;" horiz-adv-x="1847" d="M143 508v143h1561v-143h-1561z" />
<glyph unicode="&#x2018;" horiz-adv-x="526" d="M141 1126v279q0 24 6 46.5t21.5 50t52.5 44.5t90 17h76v-119h-55q-60 0 -60 -47v-37h115v-234h-246z" />
<glyph unicode="&#x2019;" horiz-adv-x="507" d="M141 1126v119h56q59 0 59 47v37h-115v234h246v-279q0 -24 -6 -46.5t-21.5 -50t-52.5 -44.5t-90 -17h-76z" />
<glyph unicode="&#x201a;" horiz-adv-x="532" d="M143 0v233h246v-278q0 -24 -6 -46.5t-21.5 -50t-52.5 -44.5t-90 -17h-76v119h56q59 0 59 47v37h-115z" />
<glyph unicode="&#x201c;" horiz-adv-x="911" d="M141 1126v279q0 24 6 46.5t21.5 50t52.5 44.5t90 17h76v-119h-55q-60 0 -60 -47v-37h115v-234h-246zM526 1126v279q0 24 6 46.5t21.5 50t52.5 44.5t90 17h76v-119h-55q-60 0 -60 -47v-37h115v-234h-246z" />
<glyph unicode="&#x201d;" horiz-adv-x="892" d="M141 1126v119h56q59 0 59 47v37h-115v234h246v-279q0 -24 -6 -46.5t-21.5 -50t-52.5 -44.5t-90 -17h-76zM526 1126v119h56q59 0 59 47v37h-115v234h246v-279q0 -24 -6 -46.5t-21.5 -50t-52.5 -44.5t-90 -17h-76z" />
<glyph unicode="&#x201e;" horiz-adv-x="915" d="M141 2v234h246v-279q0 -24 -6 -46.5t-21.5 -50t-52.5 -44.5t-90 -17h-76v119h56q59 0 59 47v37h-115zM526 2v234h246v-279q0 -24 -6 -46.5t-21.5 -50t-52.5 -44.5t-90 -17h-76v119h56q59 0 59 47v37h-115z" />
<glyph unicode="&#x2022;" horiz-adv-x="880" d="M190 432v459h500v-459h-500z" />
<glyph unicode="&#x2026;" horiz-adv-x="1656" d="M143 0v233h246v-233h-246zM713 0v233h245v-233h-245zM1268 0v233h245v-233h-245z" />
<glyph unicode="&#x202f;" horiz-adv-x="403" />
<glyph unicode="&#x2039;" horiz-adv-x="741" d="M80 561l448 576l125 -101l-370 -475l370 -475l-125 -100z" />
<glyph unicode="&#x203a;" horiz-adv-x="741" d="M88 86l371 475l-371 475l125 101l449 -576l-449 -575z" />
<glyph unicode="&#x205f;" horiz-adv-x="504" />
<glyph unicode="&#x20ac;" d="M88 469v139h229q-6 61 -6 131q0 33 4 99h-227v137h244q52 267 222.5 395.5t430.5 128.5q209 0 442 -65v-265h-106q-31 65 -70.5 104t-108.5 61t-173 22q-158 0 -276 -93.5t-165 -287.5h525v-137h-545q-4 -70 -4 -109q0 -65 6 -121h543v-139h-518q50 -182 171.5 -266 t290.5 -84q64 0 111.5 8t79 21.5t56.5 39t41 50.5t36 67h106v-264q-236 -66 -442 -66q-250 0 -418.5 121t-226.5 373h-252z" />
<glyph unicode="&#x2122;" horiz-adv-x="1585" d="M137 1300v175h500v-175h-51l-25 97h-125v-383q0 -15 19 -15h24v-73h-186v73h24q17 0 17 15v383h-121l-25 -97h-51zM729 926v73h25q18 0 18 15v381q0 14 -14 14h-29v66h197l168 -431l155 431h189v-66h-29q-14 0 -14 -14v-381q0 -15 18 -15h25v-73h-176v73h30v394 l-172 -467h-86l-186 465v-392h31v-73h-150z" />
<glyph unicode="&#x25fc;" horiz-adv-x="1105" d="M0 0v1106h1106v-1106h-1106z" />
</font>
</defs>
</svg>
